<?xml version="1.0" encoding="UTF-8"?>
<svg id="Layer_2" data-name="Layer 2" xmlns="http://www.w3.org/2000/svg" viewBox="0 0 33.58 33.58">
  <defs>
    <style>
      .cls-1 {
        fill: #fff;
      }

      .cls-2 {
        fill: #004895;
      }
    </style>
  </defs>
  <g id="Layer_1-2" data-name="Layer 1">
    <g>
      <circle class="cls-2" cx="16.79" cy="16.79" r="16.79"/>
      <g>
        <path class="cls-1" d="m18.56,22.6c.04.18.08.36.11.53,0,.02-.02.06-.04.07-.21.14-.33.33-.38.57-.01.05-.04.09-.04.15.04-.07.08-.14.11-.22.06-.18.18-.31.37-.41,0,.09,0,.16,0,.22-.02.17-.05.34-.08.51-.03.16-.1.31-.26.4-.16.1-.24.26-.26.45.07-.18.16-.35.36-.45-.11.37-.17.72-.02,1.08-.13-.65.06-.99.28-1.43.13.25-.1.49-.05.73.03-.1.06-.21.1-.31.07-.17.07-.33.04-.51-.02-.09-.03-.19-.02-.28.06-.47-.01-.93-.17-1.37-.02-.05-.02-.11-.02-.17.01-.36.03-.71.03-1.07,0-.1.03-.15.11-.2.7-.4,1.31-.92,1.87-1.49.45-.45.85-.94,1.22-1.44,0-.01.01-.03.02-.04.01,0,.02,0,.03.01.03.15.06.31.08.46.13.91.16,1.83.07,2.75-.11,1.09-.38,2.13-.9,3.1-.45.83-1.03,1.55-1.87,2.02-.72.4-1.49.53-2.31.38-.04,0-.07-.01-.11-.02,0,0-.01,0-.02,0,.21.2.93.37,1.48.29.52-.07.99-.26,1.47-.53-.13.35-.31.62-.54.88.73-.49,1.25-1.15,1.65-1.93.05.49.07.97-.03,1.46.03-.05.07-.11.1-.16.31-.58.4-1.19.32-1.84-.01-.08,0-.15.05-.22.56-.87.93-1.81,1.03-2.84.02-.21.02-.42.03-.63,0,0,.02-.01.03-.02.11.2.24.38.33.59.07.17.1.36.14.54,0,.03-.01.09-.04.11-.19.13-.32.31-.37.54-.01.05-.04.1-.06.15,0,0,.02,0,.02.01.04-.07.07-.15.11-.22.04-.08.08-.16.13-.23.05-.07.13-.11.21-.18.01.05.02.07.02.09.01.29-.03.57-.14.83-.03.06-.08.12-.13.17-.18.13-.3.3-.33.52.07-.18.15-.35.34-.45-.03.17-.07.34-.08.5,0,.16.01.32.05.49-.09-.5.09-.93.31-1.36.12.25-.08.47-.05.71.04-.11.09-.22.11-.32.03-.13.07-.28.04-.4-.05-.2-.01-.39,0-.59,0-.09,0-.19,0-.29.13.3.23.61.27.93.04.32.06.65.09.99.02-.06.03-.12.04-.18.11-.72,0-1.42-.25-2.1-.18-.48-.43-.93-.73-1.35-.06-.08-.08-.16-.07-.26.08-.79-.01-1.58-.19-2.35-.1-.43-.23-.85-.35-1.27,0-.04-.02-.07-.03-.12.05.01.09.02.12.03.38.13.77.18,1.17.08.03,0,.1.03.11.06.08.25.15.5.22.75,0,.02,0,.07-.03.08-.26.17-.37.42-.44.74.15-.24.19-.52.47-.62,0,.01.02.02.02.04.01.31-.03.61-.15.89-.02.05-.07.09-.11.13-.15.12-.27.25-.31.45.08-.15.16-.3.33-.38-.03.18-.08.36-.08.53,0,.18.03.35.07.53-.12-.52.06-.98.29-1.43.13.26-.1.49-.05.73.04-.12.08-.24.12-.36.05-.15.05-.31.02-.47-.02-.09-.03-.19-.02-.28.06-.47,0-.93-.18-1.37-.01-.03-.02-.06-.03-.1.06-.03.12-.06.18-.1.13-.1.26-.19.38-.3.21-.19.48-.18.66.04.64.78.96,1.68,1.01,2.67.06,1.01-.16,1.96-.52,2.89-.35.88-.82,1.68-1.34,2.46-.43.64-.88,1.25-1.42,1.81-.44.46-.95.83-1.54,1.08-.5.21-.85.55-1.11,1.02-.4.75-1.04,1.18-1.88,1.3-.5.07-.99-.02-1.44-.24-1.02-.5-1.98-1.08-2.85-1.8-.81-.67-1.5-1.43-2.01-2.36-.54-.97-.79-2.01-.76-3.12,0-.05.03-.11.06-.15.51-.69,1.1-1.31,1.77-1.85.55-.45,1.14-.84,1.8-1.12.4-.17.82-.29,1.25-.36.06,0,.09,0,.1.07.02.12.05.23.07.35,0,.03-.01.07-.03.08-.2.13-.33.32-.38.56-.01.05-.04.1-.05.16.15-.2.19-.51.5-.61-.01.16-.01.32-.03.47-.01.1-.04.21-.07.31-.04.13-.09.24-.21.32-.16.11-.26.27-.28.46.07-.18.16-.34.36-.45-.12.38-.17.74-.01,1.11-.15-.53.03-1,.27-1.47.06.16.04.3,0,.44-.04.11-.08.22-.04.31.03-.1.07-.22.11-.34.06-.17.07-.34.02-.52-.02-.07-.02-.15-.01-.22.06-.4.03-.79-.1-1.16-.09-.28-.14-.56-.16-.84-.07-.89,0-1.77.28-2.63.29-.9.77-1.69,1.43-2.36.06-.06.08-.11.05-.2-.17-.58-.26-1.17-.14-1.77.15-.77.65-1.22,1.43-1.34.42-.06.83-.02,1.25.01,1.05.08,2.08-.01,3.04-.5.18-.09.34-.2.51-.31.42-.29.97-.23,1.3.14,0,.01.02.02.02.02-.06.02-.14.03-.19.07-.05.05-.08.12-.1.19-.09.42-.03.82.18,1.2,0,.02.02.03.03.04.14.17.27.15.35-.06.02-.06.04-.13.06-.23,0,.31-.08.57-.22.81-.13.21-.3.41-.47.6-.16.18-.38.25-.61.29-1.28.19-2.43.66-3.38,1.57-.61.58-1.02,1.3-1.26,2.11-.15.5-.22,1.01-.24,1.53,0,.01,0,.02.01.04.03-.01.05-.02.08-.03.74-.39,1.53-.47,2.34-.29.04,0,.09.03.11.06.13.31.26.62.26.96,0,.07-.02.16-.05.22-.64,1.02-1.45,1.87-2.58,2.34-.59.24-1.19.25-1.78,0-.03-.01-.05-.02-.09-.03.08.15.56.37.93.38.35.02.68-.05,1.01-.16-1.2.87-2.43,1.67-3.87,2.08.26-.04.51-.09.77-.13,0,0,.01.02.02.03-.16.1-.32.2-.49.3-.02,0-.05-.01-.08-.03-.18-.13-.38-.19-.61-.16-.06,0-.13,0-.2,0,.24.08.54,0,.76.27-.2.05-.38.1-.56.14-.03,0-.07,0-.1.01-.18.02-.36.03-.52-.1-.16-.13-.37-.12-.6-.09.13.01.23,0,.33.03.1.03.19.08.29.14-.38.03-.72.12-1.01.37.45-.32.95-.29,1.46-.24-.18.19-.45.1-.66.18.3,0,.6.03.86-.18.08-.07.21-.07.32-.1.45-.12.83-.36,1.17-.66.04-.03.08-.07.13-.08.64-.22,1.23-.52,1.78-.9.03-.02.05-.03.1-.06.03.55-.03,1.07-.17,1.58-.14.52-.37.99-.73,1.39.29-.12.5-.33.65-.59.14-.26.25-.53.38-.81Z"/>
        <path class="cls-1" d="m15.08,8.91c.07-.25.2-.42.37-.55.07-.06.08-.11.06-.19-.14-.68-.29-1.36-.43-2.05-.06-.29-.12-.59-.18-.89-.01-.08,0-.16,0-.25.09.12.21.13.33.1.28-.06.53-.17.72-.38.06-.06.08-.16.14-.26.04.06.11.12.15.2.29.69.58,1.39.87,2.08.05.13.11.25.16.38.09-.14.17-.28.28-.38.14-.13.3-.23.46-.33.06-.04.1-.08.12-.16.14-.61.3-1.21.44-1.82.04-.17.11-.3.3-.36-.21.19-.2.32.05.41.41.16.82.16,1.24,0,.05-.02.09-.05.16-.09,0,.05,0,.09,0,.13-.05.61-.1,1.22-.15,1.82,0,.09.02.13.1.16.54.22,1.03.51,1.41.97.28.34.47.72.56,1.18-.17.04-.34.1-.51.13-.68.14-1.37.15-2.06.08-.53-.05-1.06-.05-1.57.14-.66.25-1.05.73-1.2,1.41-.13.59-.08,1.18.06,1.76.03.13,0,.21-.08.31-.73.79-1.21,1.72-1.46,2.77-.05.22-.08.44-.13.66,0,.03-.03.06-.05.09-.03-.02-.07-.03-.08-.06-.49-.67-.9-1.37-1.19-2.15-.3-.82-.43-1.66-.4-2.53.02-.49-.19-.88-.61-1.15-.06-.04-.09-.09-.09-.16.03-.9.09-1.79.25-2.67.01-.08.03-.15.04-.23.04-.2.18-.35.36-.38.21-.03.38.05.48.23.17.32.34.64.5.97.16.31.32.62.48.93.02.03.04.07.08.13Z"/>
        <path class="cls-1" d="m10.33,21.81c-.06-.17-.13-.33-.19-.5-.19-.63-.21-1.27-.13-1.92.08-.7.3-1.36.57-2,.25-.59.41-1.2.46-1.84.04-.46-.02-.9-.26-1.3-.22-.37-.29-.78-.34-1.2-.08-.62-.07-1.25-.04-1.88.02-.5.39-.88.88-.93.02,0,.03,0,.07,0-.08.04-.14.07-.2.1-.15.09-.15.24,0,.32.15.07.31.12.48.15.27.04.54.03.79-.07.11-.04.23-.09.23-.22,0-.13-.12-.17-.21-.21-.03-.02-.07-.03-.1-.05.16-.03.42.08.58.23.22.2.32.45.31.75-.04,1.06.16,2.08.58,3.06.33.78.78,1.49,1.32,2.14.08.1.11.19.11.32.02.45.06.9.1,1.35,0,.08-.03.09-.09.11-.53.11-1.04.3-1.52.55-.74.39-1.41.89-2.01,1.47-.5.48-.96.99-1.36,1.56,0,0-.02.01-.04.03Z"/>
        <path class="cls-1" d="m19.31,16.2c.04-.43.14-.83.28-1.23.46-1.28,1.37-2.12,2.58-2.66.24-.11.5-.18.75-.28.09-.04.15-.02.21.07.47.62.76,1.32.92,2.08.1.47.13.95.13,1.43,0,.08-.02.12-.11.15-.13.04-.28.1-.37.2-.45.46-.99.51-1.57.35-.35-.1-.7-.21-1.05-.27-.57-.11-1.13-.03-1.67.14-.02,0-.05.01-.09.02Z"/>
        <path class="cls-1" d="m7.99,14.02c.09-.29.24-.5.5-.59.52-.18,1.05-.33,1.59-.5.02.14.04.24.05.34.07.44.18.87.42,1.26.15.24.16.52.17.8,0,.07-.03.09-.1.1-.51.05-1.01.16-1.5.31-.22.07-.45.06-.59-.02.18-.44.08-.86-.08-1.27-.05-.13-.14-.25-.22-.37-.05-.07-.13-.1-.24-.05Z"/>
      </g>
    </g>
  </g>
</svg>