<?xml version="1.0" encoding="UTF-8"?>
<svg id="Layer_2" data-name="Layer 2" xmlns="http://www.w3.org/2000/svg" viewBox="0 0 33.58 33.58">
  <defs>
    <style>
      .cls-1 {
        fill: #fff;
      }

      .cls-2 {
        fill: #004895;
      }
    </style>
  </defs>
  <g id="Layer_1-2" data-name="Layer 1">
    <g>
      <circle class="cls-2" cx="16.79" cy="16.79" r="16.79"/>
      <g>
        <path class="cls-1" d="m12.94,8.82c.02-.13.04-.25.07-.38.05-.19.16-.34.35-.41.41-.15.84-.19,1.27-.12.36.06.56.3.59.68,0,.12,0,.24.01.36,0,.11.08.14.16.08.1-.07.2-.16.29-.24.44-.39.85-.38,1.26.04.16.17.32.34.47.52.12.13.15.3.08.46-.08.2-.18.39-.28.58-.02.04-.06.07-.08.12-.03.07-.04.15-.07.22.07,0,.14,0,.21,0,.17-.03.35-.07.52-.09.42-.05.72.14.91.51.25.47.42.98.5,1.5.08.5.11,1.01.15,1.51,0,.07-.01.15,0,.22.07.3-.05.52-.24.73-.09.1-.16.21-.26.33-.18-.26-.33-.53-.53-.77-.19-.23-.42-.44-.66-.68-.07.23-.13.41-.17.6-.15.65-.45,1.21-.93,1.67-.2.19-.18.19.03.37.26.21.5.43.75.65.07.06.06.12,0,.19-.13.16-.25.34-.38.51-.07-.09-.13-.18-.21-.26-.21-.2-.41-.41-.65-.57-.92-.63-1.52-1.47-1.74-2.57-.21-1.06-.79-1.87-1.61-2.54-.63-.51-1.34-.81-2.15-.9-.53-.06-1.02.3-1.08.81-.04.33.11.57.37.75.18.12.37.22.55.33,1.08.61,1.41,1.55,1.2,2.71-.04.23-.1.46-.16.68-.08.27-.22.37-.51.39-.45.04-.91.03-1.35.13-1.29.29-2.11,1.11-2.5,2.36-.3.97-.5,1.96-.6,2.97-.12,1.23.78,2.41,2.01,2.59.37.06.76.05,1.14.02.82-.06,1.65-.12,2.46-.25,1.23-.19,2.42-.51,3.53-1.09.52-.27,1.02-.59,1.46-.98.18-.16.31-.36.38-.59.01-.04.05-.09.08-.1.63-.26,1.21-.59,1.74-1.02,0,0,0,0,.03,0-.02.05-.03.09-.05.13-.59,1.1-1.41,1.99-2.46,2.66-.39.25-.78.5-1.19.7-1.05.5-2.16.84-3.31,1.04-1.11.19-2.22.25-3.34.29-1.89.07-3.24-1.48-3.27-3.2,0-.58.11-1.15.22-1.72.26-1.34.64-2.65,1.23-3.89.56-1.18,1.26-2.25,2.16-3.19.29-.31.26-.27-.04-.52-.57-.47-.71-1.33-.3-1.95.29-.44.67-.76,1.23-.81.14-.01.28,0,.42.02.26.02.51-.12.62-.35.02-.05,0-.13-.02-.19-.06-.14-.15-.27-.21-.41-.09-.21-.08-.42.03-.62.35-.61,1.04-.84,1.62-.2.05.06.1.12.15.17.01,0,.03,0,.04-.01Zm1.58.44s0,0,0,0c0-.14,0-.29,0-.43-.02-.24-.16-.34-.44-.34-.27,0-.38.09-.4.34-.02.27,0,.55-.02.82-.01.2-.11.34-.3.42-.19.07-.35.03-.48-.12-.07-.08-.14-.16-.21-.24-.17-.2-.33-.4-.5-.6-.08-.1-.18-.08-.27-.01-.09.07-.15.15-.07.26.08.12.17.25.25.37.18.29.17.45-.04.71-.04.05-.08.1-.12.15-.07.08-.07.14.03.2.24.13.48.25.71.39.61.37,1.17.81,1.63,1.37.49.58.69,1.29.84,2.02.08.41.23.79.46,1.13.18.26.36.28.56.03.15-.18.29-.38.41-.58.48-.9.49-1.83.12-2.75-.16-.39-.4-.76-.6-1.14-.18-.33-.17-.5.09-.77.14-.16.32-.29.47-.44.06-.06.14-.15.14-.21-.02-.24-.18-.39-.38-.5-.15-.09-.27.02-.37.12-.22.2-.42.41-.64.6-.15.13-.33.19-.53.1-.2-.1-.32-.25-.33-.48,0-.13,0-.25,0-.38Zm-6.37,7.48s.02.02.04.03c.04-.02.08-.03.11-.05.73-.38,1.5-.63,2.34-.62.21,0,.29-.07.32-.28.04-.26.07-.52.06-.78-.02-.38-.16-.73-.38-1.04-.14-.2-.26-.22-.46-.08-.1.07-.18.15-.26.23-.6.61-1.09,1.29-1.5,2.04-.1.18-.18.36-.27.55Zm10.44-2.92c.03-.06.04-.08.04-.09,0-.03,0-.07,0-.1-.08-.46-.14-.93-.25-1.39-.06-.25-.17-.48-.27-.72-.1-.22-.19-.26-.43-.19-.15.04-.29.1-.43.16-.1.04-.11.1-.07.2.08.2.13.41.22.6.09.21.17.44.32.62.26.32.57.6.88.91Z"/>
        <path class="cls-1" d="m23.75,13.22c.06.05.13.1.2.15.33.24.34.38.04.66-.36.33-.75.65-1.08,1.02-.48.55-.94,1.12-1.37,1.71-.73,1-1.42,2.02-2.34,2.87-.87.8-1.89,1.32-3.03,1.61-.1.02-.19.05-.32.08.04-.07.05-.1.08-.13,1.35-1.81,2.7-3.63,4.05-5.44.76-1.02,1.52-2.04,2.28-3.06.03-.04.07-.09.1-.13.13-.15.27-.16.43-.05.09.06.17.13.26.21.16-.21.32-.42.47-.63.02-.02,0-.08-.01-.12-.12-.34-.06-.65.15-.94.6-.81,1.21-1.62,1.81-2.43.2-.27.4-.54.6-.81.31-.41.68-.47,1.1-.17.12.08.24.17.34.26.27.23.34.56.16.87-.13.22-.28.43-.44.63-.67.9-1.34,1.8-2.01,2.7-.23.32-.52.52-.93.49-.04,0-.1.02-.12.05-.15.19-.29.39-.43.6Z"/>
        <path class="cls-1" d="m12.7,20.52c0,.07,0,.14.02.2.25.78.5,1.55.75,2.33.03.1.06.19.09.29.04.18-.01.3-.17.37-.15.07-.27.04-.36-.14-.1-.18-.18-.38-.25-.58-.15-.41-.28-.83-.42-1.24-.01-.04-.03-.08-.06-.16-.15.37-.23.71-.23,1.07,0,.03,0,.06,0,.08,0,.24-.09.37-.29.38-.22,0-.32-.1-.34-.35-.02-.34.03-.68.13-1.01.07-.22.14-.43.23-.64.15-.36.2-.73.14-1.12-.11-.7-.12-1.39.09-2.08,0,0,0-.02-.01-.05-.09.03-.17.06-.25.09-.2.07-.35,0-.4-.2-.04-.14,0-.26.13-.32.32-.16.64-.31.95-.46.11-.05.23-.1.35-.14.14-.05.19-.15.19-.29,0-.34.01-.67.03-1.01,0-.21.15-.35.33-.35.17,0,.3.16.3.37,0,.37-.03.74-.03,1.1,0,.29-.15.48-.36.64-.31.24-.55.52-.65.9-.18.64-.02,1.2.44,1.68.54.56,1.17,1.01,1.86,1.37.14.07.28.15.28.33,0,.19-.14.32-.33.29-.09-.02-.18-.05-.26-.09-.63-.33-1.21-.72-1.72-1.21-.04-.03-.08-.06-.11-.09-.01,0-.03.01-.04.02Z"/>
      </g>
    </g>
  </g>
</svg>