<?xml version="1.0" encoding="UTF-8"?>
<svg id="Layer_2" data-name="Layer 2" xmlns="http://www.w3.org/2000/svg" viewBox="0 0 33.58 33.58">
  <defs>
    <style>
      .cls-1 {
        fill: #fff;
      }

      .cls-2 {
        fill: #004895;
      }
    </style>
  </defs>
  <g id="Layer_1-2" data-name="Layer 1">
    <g>
      <circle class="cls-2" cx="16.79" cy="16.79" r="16.79"/>
      <g>
        <path class="cls-1" d="m22.98,22.56v-1.03h-11.28v1.03c.45.17.74.48.8.97.07.57-.3,1.08-.86,1.22-.54.13-1.1-.17-1.3-.7-.2-.53.03-1.15.54-1.39.17-.08.21-.18.21-.35,0-.95,0-1.9,0-2.85,0-.12-.04-.19-.13-.27-.16-.16-.33-.32-.45-.51-.91-1.44-1.8-2.89-2.7-4.34-.26-.42-.18-.92.18-1.22.35-.28.86-.27,1.18.04.09.09.16.19.23.3.84,1.35,1.68,2.7,2.51,4.05.17.27.38.39.7.39,3.76,0,7.52,0,11.27,0,.46,0,.79.2.93.58.23.59-.19,1.21-.83,1.24-.13,0-.25,0-.4,0,0,.07-.01.12-.01.17,0,.84,0,1.67,0,2.51,0,.12.03.17.14.22.51.22.77.74.65,1.28-.11.51-.57.88-1.1.88-.52,0-.98-.37-1.09-.88-.11-.53.16-1.05.66-1.28.04-.02.08-.04.12-.06Zm0-2.85h-.26c-3.12,0-6.24,0-9.35,0-.55,0-1.11-.03-1.66-.04v1.23h11.27v-1.19Zm-4.87-.61c1.9,0,3.8,0,5.7,0,.08,0,.15,0,.23-.01.16-.04.25-.15.23-.32-.01-.16-.11-.25-.27-.27-.08,0-.16,0-.25,0-3.7,0-7.4,0-11.1,0-.58,0-.98-.22-1.28-.72-.81-1.34-1.65-2.67-2.48-4.01-.16-.25-.32-.32-.49-.21-.17.11-.18.28-.03.53.01.02.03.04.04.06.84,1.35,1.68,2.7,2.51,4.05.37.61.89.9,1.6.89,1.86,0,3.71,0,5.57,0Zm-6.21,4.55c0-.29-.23-.52-.52-.52-.29,0-.52.23-.52.52,0,.29.23.52.52.52.28,0,.52-.24.52-.52Zm11.38.52c.28,0,.52-.23.52-.52,0-.28-.23-.52-.52-.52-.29,0-.52.23-.52.52,0,.29.23.52.51.52Z"/>
        <path class="cls-1" d="m25.31,11.66h-2.8c0,.17,0,.32,0,.48,0,.26-.1.36-.36.36-.37,0-.73,0-1.12,0v.85c.21,0,.42,0,.64,0,.57,0,.78.21.78.78,0,.96,0,1.93,0,2.89,0,.06,0,.13,0,.19-.03.16-.14.26-.3.26-.16,0-.28-.12-.29-.3,0-.08,0-.16,0-.25,0-.91,0-1.83,0-2.74v-.22h-3.34c0,.06,0,.13,0,.2,0,.96,0,1.91,0,2.87,0,.06,0,.12,0,.17-.03.16-.13.26-.3.26-.17,0-.27-.1-.29-.27,0-.04,0-.09,0-.13,0-1.01,0-2.02,0-3.02,0-.44.23-.68.68-.69.24,0,.48,0,.73,0v-.85c-.32,0-.64,0-.95,0-.48,0-.53-.05-.53-.54,0-.87,0-1.74,0-2.6,0-.31.1-.41.41-.41,1.29,0,2.59,0,3.88,0,.3,0,.39.09.39.4,0,.47,0,.94,0,1.41,0,.09,0,.17,0,.28.09,0,.15,0,.22,0,.83,0,1.66,0,2.49,0,.46,0,.7.24.7.71,0,.44,0,.87,0,1.31,0,.62-.19.84-.83.93,0,.22,0,.44,0,.66,0,.03.03.07.05.1.46.57.54,1.66.16,2.28-.27.43-.74.44-1.01.01-.36-.55-.33-1.88.14-2.28.04-.03.06-.1.06-.15,0-.28,0-.56,0-.84,0-.22-.13-.35-.32-.35-.19,0-.33.15-.33.37,0,.29,0,.58,0,.87,0,.8,0,1.61,0,2.41,0,.18-.06.31-.25.35-.17.04-.33-.09-.35-.29-.01-.13,0-.25,0-.38,0-.98,0-1.96,0-2.95,0-.53.32-.92.82-.98.38-.05.69.1.89.42.07.11.16.16.26.11.06-.03.11-.14.11-.22,0-.49,0-.97,0-1.48Zm-3.42.23v-1.04c-.21,0-.4,0-.6,0-.17-.01-.28.04-.37.19-.1.17-.22.32-.33.49-.08.12-.17.2-.33.19-.16-.02-.22-.12-.28-.25-.1-.24-.2-.47-.32-.74-.06.09-.11.15-.15.22-.11.21-.27.3-.51.28-.19-.02-.38,0-.57,0v.68h3.45Zm0-2.32h-3.46v1.01c.48.09.55.06.8-.32.06-.08.11-.17.17-.25.08-.13.17-.25.34-.24.18.01.25.15.31.29.1.23.2.46.31.72.08-.12.15-.19.19-.28.11-.21.28-.28.52-.27.27.02.54,0,.82,0v-.67Zm-1.96,2.94v.82h.46v-.82h-.46Zm4.85,2.8c-.18.45-.19.9,0,1.36.19-.45.2-.9,0-1.36Z"/>
        <path class="cls-1" d="m12.85,9.41c-.34,0-.65,0-.97,0-.05,0-.11.08-.15.14-.19.29-.54.43-.86.34-.32-.08-.56-.37-.58-.69-.01-.21.08-.36.26-.38.17-.02.29.08.33.29.02.12.06.21.2.2.13,0,.16-.09.17-.21.02-.19.13-.29.33-.29,1.05,0,2.1,0,3.16,0,.21,0,.29.09.34.31.02.07.09.16.16.18.12.03.17-.06.19-.18.04-.22.18-.33.34-.3.18.03.28.17.25.4-.03.23-.13.43-.33.55-.15.09-.18.2-.13.37.12,0,.25,0,.38,0,.22,0,.34.12.34.34,0,.61,0,1.23,0,1.84,0,.21-.08.39-.25.53,0,0,0,0-.01.01-.59.31-.54.83-.43,1.36.14.66.53,1.14,1.14,1.43.08.04.19.09.2.15.03.11.04.26-.02.35-.08.14-.23.14-.37.08-.5-.22-.9-.56-1.19-1.02-.32-.51-.44-1.08-.41-1.67,0-.2-.04-.34-.21-.45-.08-.05-.15-.14-.23-.2-.22-.17-.31-.38-.31-.66,0-.58,0-1.15,0-1.73,0-.28.1-.37.38-.38.11,0,.23,0,.34,0,.04-.17.03-.29-.13-.38-.08-.04-.15-.12-.19-.2-.06-.13-.15-.16-.29-.16-.28.01-.56,0-.86,0,0,.1,0,.18,0,.26,0,2.46,0,4.92,0,7.38,0,.32-.09.46-.3.46-.2,0-.3-.15-.3-.46,0-2.45,0-4.9,0-7.36,0-.08,0-.16,0-.28Zm2.4,3.33c.1-.09.18-.16.26-.22.14-.09.18-.22.18-.38-.01-.38,0-.76,0-1.14,0-.08,0-.16,0-.23h-.87c0,.52,0,1.02,0,1.53,0,.04.03.1.06.13.11.11.24.21.37.32Z"/>
      </g>
    </g>
  </g>
</svg>