<?xml version="1.0" encoding="UTF-8"?>
<svg id="Layer_2" data-name="Layer 2" xmlns="http://www.w3.org/2000/svg" viewBox="0 0 33.58 33.65">
  <defs>
    <style>
      .cls-1 {
        fill: #004895;
      }
    </style>
  </defs>
  <g id="Layer_1-2" data-name="Layer 1">
    <g>
      <path class="cls-1" d="m17.73,0c.57.08,1.14.15,1.71.24,3.23.51,6.07,1.86,8.5,4.03,2.96,2.64,4.82,5.94,5.42,9.86.8,5.19-.52,9.84-3.97,13.82-2.47,2.84-5.59,4.65-9.28,5.37-4.75.92-9.15,0-13.13-2.8-1.11-.78-2.07-1.71-2.98-2.71-.23-.25-.24-.43-.03-.72.87-1.16,2.03-1.9,3.34-2.42.27-.11.71-.08.95.07,1.18.78,2.51,1.14,3.84,1.5,1.52.42,3.07.66,4.66.5,1.39-.14,2.66-.62,3.85-1.32,2.93-1.73,4.68-4.39,5.81-7.51.45-1.24.77-2.51.87-3.83.08-1.09-.02-2.16-.57-3.12-.61-1.07-1.63-1.56-2.77-1.84-1.45-.34-2.91-.42-4.29.27-.44.22-.84.53-1.22.84-.47.39-.62.45-1.15.17-1.44-.74-2.78-1.59-3.64-3.02-.59-.99-.85-2.09-.91-3.22-.06-1.21-.01-2.42-.01-3.7.85-.12,1.7-.25,2.54-.37C15.45.06,15.62.03,15.79,0c.65,0,1.29,0,1.94,0ZM5.84,26.07c.02.07.02.12.05.15.05.07.1.13.15.19,3.6,3.86,8.05,5.44,13.24,4.58,6.51-1.08,11.38-6.53,11.84-13.14.27-3.9-.87-7.4-3.44-10.37-2.74-3.18-6.25-4.83-10.45-5.01-1.21-.05-2.42.06-3.6.35-.12.03-.29.18-.29.27.09,1.86.64,3.54,1.97,4.9.64.66,1.18.75,1.99.3.53-.29,1.01-.67,1.56-.92,1.55-.72,3.16-.63,4.78-.28,1.34.29,2.55.85,3.48,1.89,1.22,1.37,1.58,3.04,1.51,4.8-.13,3.06-1.02,5.9-2.71,8.45-2.11,3.18-5.1,4.98-8.9,5.37-2.25.23-4.45-.11-6.59-.85-.94-.32-1.85-.71-2.8-1.01-.61-.19-1.22-.11-1.77.33Z"/>
      <path class="cls-1" d="m13.07,21.61c1.07-.35,2.09-.79,2.92-1.62,1.12-1.12,1.73-2.48,2.18-3.96.29-.97.6-1.93.92-2.89.48-1.47,1.96-2.12,3.36-1.96,1.03.12,2,.45,2.84,1.1.88.68,1.04,1.59.86,2.59-.34,1.95-1.25,3.65-2.45,5.2-.53.69-1.07,1.39-1.71,1.97-1.31,1.19-2.79,2.1-4.56,2.43-.69.13-1.38.3-2.07.3-1.26-.01-2.47-.34-3.63-.85-.56-.25-1.17-.41-1.65-.76-.85-.63-1.62-.22-2.4.04-1.67.56-3.21,1.36-4.41,2.7-.1.11-.18.23-.32.41C.21,22.15-.64,17.68.48,12.92,1.92,6.84,6.5,2.57,11.41,1c0,.6,0,1.18,0,1.77,0,1.41.13,2.81.61,4.14.48,1.34,1.31,2.45,2.48,3.27.72.5,1.47.97,2.22,1.44.48.3.56.46.5,1.01-.06.62-.09,1.25-.16,1.88-.17,1.43-.27,2.88-.89,4.2-.39.82-.99,1.49-1.73,2.02-.44.32-.91.59-1.37.89ZM10.73,3.8c-2.82,1.09-6.59,4.39-7.86,9.17-1.05,3.96-.54,7.71,1.52,11.29.13-.08.2-.12.26-.16.52-.41,1.02-.87,1.58-1.23,1.15-.75,2.38-1.36,3.69-1.76.68-.21,1.36-.41,2.02-.68,1.07-.43,2.03-1.06,2.47-2.18.26-.66.44-1.38.53-2.09.13-1.14.2-2.3.2-3.45,0-.92-.34-1.7-1.2-2.22-1.75-1.07-2.58-2.74-2.9-4.71-.1-.65-.2-1.29-.31-1.98Z"/>
    </g>
  </g>
</svg>