<?xml version="1.0" encoding="UTF-8"?>
<svg id="Layer_2" data-name="Layer 2" xmlns="http://www.w3.org/2000/svg" viewBox="0 0 100 100">
  <defs>
    <style>
      .cls-1 {
        fill: #fff;
      }

      .cls-2 {
        fill: #00539f;
      }
    </style>
  </defs>
  <g id="Layer_1-2" data-name="Layer 1">
    <g>
      <circle class="cls-2" cx="50" cy="50" r="50"/>
      <path class="cls-1" d="m27.37,78.24c-.29.41-.7.78-.85,1.23-.33.97-1.01,1.13-1.89,1.08-.92-.05-1.59-.5-1.8-1.36-.21-.85-.32-1.76-.28-2.64.09-1.93.16-2.03,2.08-2.07,3.69-.08,7.39-.06,11.08-.07,1.24,0,2.49-.04,3.73.01.82.04,1.09-.36,1.1-1.08,0-1.03,0-2.07,0-3.25-.63,0-1.17,0-1.71,0-5,.03-10,.09-15,.07-2.48,0-4.96-.18-7.45-.25-.52-.02-.82-.18-.87-.73-.02-.29-.1-.57-.12-.86-.13-2.09.03-2.23,2.1-2.26,12.02-.16,24.03-.42,36.05-.45,7.85-.02,15.71.3,23.56.45.67.01.95.25.98.88,0,.17.05.34.07.51.17,2.1-.03,2.44-2.08,2.48-5.17.1-10.34.12-15.51.16-2.28.02-4.57.03-6.85,0-.65,0-.91.27-.91.85-.01,1.01,0,2.01,0,3.23,2.03.08,3.97.19,5.92.23,3.66.07,7.33.1,10.99.12.68,0,.95.36.96.94.01,1.32,0,2.65-.04,3.97-.01.46-.23.75-.75.74-.2,0-.39.09-.59.13-1.46.26-1.47.25-2.14-1.06-.15-.28-.33-.55-.52-.8-.19-.25-.41-.48-.59-.68.12.8.36,1.6.33,2.38-.07,1.73-1.37,3.08-2.82,3.09-1.27,0-2.76-1.59-2.9-3.12-.15-1.57.93-2.67,2.86-2.91.34-.04.69,0,1.17,0-1.89-.71-3.82.2-4.66,2.23-.31.76-.69.94-1.45.94-7.6-.03-15.2-.05-22.8.01-1.3.01-2.31-.17-2.87-1.44-.19-.35-.39-.69-.58-1.04-.98-1.88-4.31-1.51-4.96.35l.03-.03Z"/>
      <path class="cls-1" d="m42.25,51.77c.48.72,1.06,1.39,1.41,2.16.23.5.27,1.2.12,1.73-.27.95-.96,1.22-1.87.86-3.15-1.24-4.82-3.71-5.32-6.93-.21-1.33-.13-2.79.21-4.1.68-2.66,2.61-4.13,5.28-4.63.24-.04.56.06.77.21,2.32,1.66,5.55,1.72,7.97.08.42-.28.71-.33,1.15-.08.83.47,1.71.83,2.53,1.31,2.63,1.54,3.67,3.77,3,6.73-.59,2.57-1.93,4.76-4,6.42-.65.52-1.49.81-2.2,1.19.23.04.59.13.95.18.98.13,1.09.34.61,1.19-.05.09-.1.18-.07.12,1.75.14,3.55.13,5.29.46,3.54.66,4.33,2.91,2.21,5.83-.39.54-.8.78-1.49.77-5.29-.03-10.58-.03-15.87,0-.8,0-1.34-.19-1.6-.98-.2-.61-.67-.75-1.28-.82-4.05-.41-8,.29-11.96.95-1.33.22-2.69.4-4.04.45-1.35.05-2.18-.52-2.5-1.46-.44-1.28-.12-2.73,1.02-3.39,1.05-.61,2.24-1.21,3.42-1.35,3.26-.39,6.55-.57,9.83-.75,1.72-.1,3.46-.02,5.23-.02.18,1.03-1.35,2.16.08,3.02.03-.63-.05-1.33.12-1.97.27-1.08.89-1.36,1.96-1.02,1.92.61,3.83,1.23,5.84,1.67-.11-.1-.23-.2-.42-.38.69-.2,1.32-.38,1.96-.56,0-.05,0-.1,0-.15-.55-.05-1.11-.19-1.64-.13-.92.11-1.61-.12-2.03-.98-.04-.07-.11-.14-.17-.19-1.21-.99-2.39-1.93-2.71-3.68-.13-.72-1.06-1.28-1.63-1.92-.04.04-.08.08-.11.12Zm8.21,7.9c0,.1,0,.19,0,.29.13.03.26.09.39.09,1.53-.01,3.05-.07,4.58-.05.88.02,1.78.1,2.64.27.59.11.86.59.87,1.23,0,1.13-.68,1.9-2.17,2.16-2.77.48-5.53.25-8.27-.25-1.77-.32-3.52-.8-5.27-1.22.24.17.51.31.79.42,2.58,1,5.28,1.53,8.03,1.56,1.83.02,3.69-.1,5.49-.43,1.36-.25,1.9-1.23,1.75-2.39-.13-.99-.83-1.62-2.2-1.67-2.21-.07-4.41-.02-6.62-.02Zm2.96-13.18c.07,2.29-1.21,3.94-2.31,5.67,2.43-1.86,3.44-3.92,2.31-5.67Zm-12.62-.16c-1.43,1.12-1.39,2.46,0,3.64v-3.64Zm9.29,7.26c-1.01,1.38-1,2.13-.06,2.56q-.48-.7.06-2.56Z"/>
      <path class="cls-1" d="m59.43,22.63c-.38-.04-.6-.07-.92-.11,1.21-1.26,2.65-1.75,4.25-1.82,2.88-.13,5.51.81,8.06,2.02.73.35,1.46.71,2.12,1.17.55.39.91.25,1.36-.13,1.68-1.43,2.34-3.39,2.82-5.43.17-.73.28-1.47.43-2.25,1.42.11,2.81.22,4.27.33.16,4.16-1.46,7.62-4.22,10.71.57.69,1.12,1.34,1.67,2.01,1.38,1.68,2.67,3.41,3.33,5.53.59,1.92.49,3.78-.4,5.79-1.37-6.87-5.58-11.33-11.22-14.67,1.19.9,2.42,1.75,3.56,2.7,2.76,2.28,4.84,5.11,6.36,8.33.32.67.52,1.41.66,2.14.4,2.03-.48,3.44-2.49,4-1.77.49-3.57.46-5.31-.08-6.76-2.13-12.29-5.93-15.91-12.16-.57-.98-.97-2.1-1.25-3.21-.63-2.52.2-3.94,2.86-4.87Zm6.36,7.58c-.73-3.29-3.89-5.34-6.67-4.39-.03,3.3,3.68,5.77,6.67,4.39Zm11.72,10.03c1.4-.02,1.66-.38,1.12-1.64-.67-1.56-1.8-2.65-3.38-3.27-.84-.33-1.7-.4-2.5.05-.23.13-.47.59-.42.84.45,2.07,3.05,4.06,5.19,4.02Zm-8.76-1.85c1.47,0,1.67-.25,1.1-1.63-.69-1.7-1.94-2.84-3.73-3.34-.85-.24-1.68-.15-2.36.45-.17.14-.32.53-.24.69.95,1.94,2.85,3.91,5.22,3.82Zm5.6-6.16c-.1-2.31-2.34-4.72-4.53-4.84-.56-.03-1.16.23-1.71.44-.44.17-.57.54-.24.97.56.73,1.02,1.55,1.68,2.18,1.32,1.27,2.91,1.81,4.8,1.25Z"/>
      <path class="cls-1" d="m62,60.26c-.12-3.46,2.72-5.21,5.74-5.17,2.9.04,4.71,1.96,4.69,4.96-.03,3.22-2.15,5.21-5.52,5.18-3.01-.03-4.94-1.98-4.9-4.96Z"/>
      <path class="cls-1" d="m51.87,33.72c-.2,1.76-.19,1.77-1.85,2.15-2.5.57-4.97.65-7.39-.39-.52-.22-.81-.5-.7-1.09.32-1.66.62-3.32.98-4.98.15-.67.63-1.02,1.33-1.17,1.78-.38,3.54-.44,5.3.08.68.2,1.2.6,1.38,1.3.34,1.36.63,2.73.95,4.1Z"/>
      <path class="cls-1" d="m51.57,35.71c.62,1.31.32,2.48-.81,3.32-1.92,1.44-6.07,1.41-7.97-.06-1.09-.84-1.38-1.99-.79-3.26,3.18,1.18,6.38,1.31,9.56,0Z"/>
      <path class="cls-1" d="m32.3,77.92c.19.35.39.69.58,1.04.05,2.32-.48,3.29-2.21,3.86-1.12.37-2.26.4-3.13-.55-.89-.97-.9-2.13-.48-3.32.09-.24.2-.47.3-.71,0,0-.03.03-.03.03,1.48-1.34,3.24-1.51,4.96-.35Z"/>
      <path class="cls-1" d="m49.93,80.7h5.31c-.12,1.15-1.11,1.98-2.41,2.07-1.58.11-2.53-.54-2.9-2.07Z"/>
      <path class="cls-1" d="m38.6,80.7h4.97c.06,1.17-.83,2.02-2.18,2.09-1.69.09-2.71-.66-2.78-2.09Z"/>
      <path class="cls-1" d="m46.25,58.36c-1.76-.33-3.51-.65-5.42-1.01,0-.08-.02-.38-.04-.8,1.09.58,2.11.45,3.12.03.13-.06.36-.05.47.03.65.5,1.28,1.02,1.92,1.54-.02.07-.04.14-.05.21Z"/>
      <path class="cls-1" d="m54.81,73.79h-1.42v-3.08h.97c.15,1.01.29,2.02.45,3.08Z"/>
      <path class="cls-1" d="m40.18,70.45c.06,1.07.15,1.85.11,2.62-.02.28-.38.54-.59.8-.23-.28-.65-.56-.65-.85-.01-.68.12-1.37.3-2.03.05-.19.44-.29.84-.53Z"/>
      <path class="cls-1" d="m51.3,39.49c-.67.73-.92,1.84-2.18,1.67-.18-1.09.74-1.42,2.18-1.67Z"/>
      <path class="cls-1" d="m42.69,39.54c1.9.7,1.94.74,1.7,2.05-.72-.67-1.32-1.24-1.92-1.81.08-.08.15-.16.23-.24Z"/>
      <path class="cls-1" d="m41.37,65.24h-1.58c.18-.46.31-.81.44-1.16.42.3.84.59,1.26.89-.04.09-.08.18-.12.27Z"/>
    </g>
  </g>
</svg>