<?xml version="1.0" encoding="UTF-8"?>
<svg id="Layer_2" data-name="Layer 2" xmlns="http://www.w3.org/2000/svg" viewBox="0 0 100 100">
  <defs>
    <style>
      .cls-1 {
        fill: #00539f;
      }
    </style>
  </defs>
  <g id="Layer_1-2" data-name="Layer 1">
    <g>
      <path class="cls-1" d="m99.28,30.45c-3.59-5.95-8.07-11.12-13.46-15.55-7-5.73-14.98-9.5-24.05-10.93-4.66-.74-9.35-.72-14.05-.11-8.03,1.03-15.34,3.81-21.82,8.5-9.86,7.15-16,16.64-18.66,28.26-1.27,5.55-1.56,11.15-.83,16.79.2,1.52.55,3.03,1.03,4.61.17-.24.38-.47.51-.74,1.92-3.75,4.72-6.63,8.86-8.07,5.94-2.07,12.29-.32,16.31,4.06,1.61,1.75,2.66,3.78,3.37,5.97.45,1.36,1.28,1.94,2.74,2.06,3.4.26,6.67-.41,9.94-1.1,2.99-.62,5.94-1.46,8.96-1.95,3.03-.5,6.11-.39,9.15.19,3.47.66,5.98,2.64,7.94,5.38.24.33.48.67.78,1.1.63-.47,1.2-.93,1.8-1.36,1.2-.84,1.77-.66,2.15.76.48,1.82-.29,3.31-1.52,4.6-.4.42-.56.81-.52,1.37.3,4.54-2.34,8.07-6.85,9.23-.24.06-.47.16-.95.34.48.29.79.55,1.14.67,2.22.76,4.29.03,6.3-.75,3.54-1.37,6.66-3.4,9.49-5.85,1.95-1.69,3.88-3.4,5.77-5.15.55-.51.97-1.18,1.39-1.82.74-1.09,1.38-2.25,2.16-3.3.53-.71,1.24-1.28,2.24-1.28,1.07,0,1.62.68,1.29,1.66-1.07,3.12-2.64,6.01-4.47,8.75-6.85,10.27-16.35,17.23-28.38,20.97-6.14,1.91-12.42,2.56-18.82,2.1-14.99-1.09-27.26-7.3-36.77-18.52-5.76-6.79-9.3-14.59-10.74-23.26-1.73-10.37-.29-20.34,4.46-29.79,5.31-10.56,13.49-18.4,24.45-23.47C37.46,1.2,45.77-.42,54.44.09c14.64.87,26.86,6.69,36.53,17.38,3.31,3.66,5.95,7.78,8.03,12.22.11.24.19.5.28.74ZM21.66,76.87c.08.08.15.17.23.25-.41.37-.78.81-1.25,1.1-1.24.78-1.3.98-.35,2.11.11.13.22.25.34.36,2.55,2.32,5.61,2.38,8.78,1.81.45-.08.96-.43,1.24-.8.8-1.07,1.53-2.19,2.23-3.32.37-.6.59-1.29.92-1.92.16-.3.45-.54.68-.81.03.32-.08.54-.19.75-1.68,3,.65,6.69,4.17,6.64.52,0,1.04.09,1.56.14-1.03.24-2.02.38-3.02.44-.42.03-.91.02-1.25-.17-1.91-1.05-3.07-.8-4.3.97-.53.76-.5,1.58.03,2.21.43.5,1.13.84,1.77,1.09.42.17.81-.09.67-.6.45.1.91.23,1.37.29.89.12,1.78.21,2.67.3,1.31.14,2.62.38,3.93.37,1.82-.01,3.48-.58,4.75-1.95.46-.49.55-.93,0-1.47-1.05-1.03-1.95-2.28-1.9-3.72.07-1.67-.78-2.41-2.16-2.94-.03-.01-.04-.09-.14-.32.67.19,1.23.31,1.75.52.48.19.76.19.98-.34.65-1.49,1.81-2.53,3.25-3.3,3.15-1.7,6.53-1.87,10-1.37.63.09,1.25.28,1.88.43-2.14.06-4.26-.06-6.35.09-2.64.19-4.94,1.23-6.68,3.24-1.92,2.21-2.01,4.64-.18,6.67,1.78,1.97,4.01,3.3,6.62,4.04.82.23,1.09.03,1.21-.75.35-2.14,1.01-4.18,2.36-5.96.28-.36.58-.71,1.03-1.24-1.28-.24-2.39-.44-3.5-.65l.03-.29c1.1.05,2.2.14,3.31.14.47,0,.99-.09,1.4-.3,1.04-.55,2-1.21,3.02-1.78,3.62-2.04,7.27-4.03,10.87-6.1,1.31-.75,1.27-.91.38-2.05-3.59-4.63-8.54-6.04-14.2-5.34-3.42.43-6.79,1.2-10.16,1.96-3.52.79-7.03,1.51-10.68,1.04-.63-.08-1.26-.18-1.9-.27-.15.63-.28,1.2-.41,1.77-.23-.65-.24-1.29-.36-1.91-.82-4.39-3.4-7.63-7.18-10.04-1.94-1.24-4.11-1.95-6.44-1.94-5.91.02-10.13,2.67-12.58,7.88-1.27,2.7-1.85,5.51-.84,8.4,1.37,3.93,4.28,6.43,8.22,7.88,1.09.4,2.16.24,3.14-.41.41-.27.81-.55,1.22-.82Zm47.95,6.1c3.47-.14,7.56-5.21,6.38-7.79-.59.62-1.15,1.19-1.69,1.78-1.23,1.34-2.49,2.66-3.66,4.05-.44.53-.66,1.23-1.03,1.97Z"/>
      <path class="cls-1" d="m81.91,80.59c1.28-1.57,2.54-3.17,3.86-4.72,2.89-3.41,4.82-7.21,5.55-11.62.3-1.83,1.05-3.59,1.7-5.35.27-.73.87-1.26,1.72-1.43.8-.16,1.16.08,1.25.88.32,2.58-.16,5.09-.6,7.61-.55,3.19-2.25,5.76-4.74,7.85-2.49,2.08-5.01,4.12-7.52,6.16-.35.29-.77.49-1.16.74-.02-.04-.03-.08-.05-.12Z"/>
      <path class="cls-1" d="m81.63,79.39c.8-1.84,1.64-3.65,2.38-5.51,1.29-3.26,1.86-6.7,2.55-10.11.14-.69.36-1.37.66-2.01.22-.45.56-.92.99-1.17.44-.25,1.05-.34,1.56-.28.15.02.33.81.27,1.22-.33,2.58-.48,5.21-1.17,7.71-.45,1.62-1.59,3.1-2.61,4.52-1.42,1.97-3.02,3.81-4.54,5.71-.03-.03-.06-.06-.1-.09Z"/>
      <path class="cls-1" d="m83.61,71.68c-.09-2.43-.2-4.85-.23-7.28,0-.37.28-.86.6-1.08.3-.21.86-.28,1.22-.16.2.07.37.66.31.97-.47,2.53-1,5.04-1.52,7.56-.13,0-.26,0-.39-.01Z"/>
      <path class="cls-1" d="m33.37,70.05c.82-.36,1.24-.93,1.14-1.79-.13-1.07-.63-1.97-1.54-2.6-.56-.39-1.16-.33-1.67.18-.2.21-.41.41-.69.71.13-1.21,1.4-1.88,2.35-1.32,1.26.75,1.87,1.93,1.96,3.32.05.82-.56,1.39-1.55,1.49Z"/>
      <path class="cls-1" d="m27.93,71.68c-.01,1.34-1.33,2.68-2.59,2.53.88-.86,1.76-1.72,2.59-2.53Z"/>
      <path class="cls-1" d="m28.66,78.39c-.68.74-1.32,1.46-2,2.16-.07.07-.41.03-.42-.01-.04-.17-.09-.42,0-.52.35-.38.73-.75,1.15-1.04.37-.25.83-.4,1.25-.59Z"/>
      <path class="cls-1" d="m32.7,66.36c.28.42.59.82.83,1.26.08.15,0,.41-.05.6-.02.05-.31.1-.36.04-.12-.12-.19-.3-.23-.47-.11-.45-.2-.91-.3-1.37l.11-.07Z"/>
      <path class="cls-1" d="m26.8,77.85c-.78,1.02-1.48,1.41-1.91,1.07.6-.34,1.18-.66,1.91-1.07Z"/>
      <path class="cls-1" d="m19.44,75.4c-.34.33-.68.67-1.02,1-.09-.07-.17-.15-.26-.22.32-.35.63-.7.95-1.05.11.09.22.18.33.28Z"/>
      <path class="cls-1" d="m25.02,70.86c-.34.32-.68.64-1.02.96-.12-.11-.24-.23-.35-.34.34-.32.69-.63,1.03-.95l.34.33Z"/>
    </g>
  </g>
</svg>