<?xml version="1.0" encoding="UTF-8"?>
<svg id="Layer_2" data-name="Layer 2" xmlns="http://www.w3.org/2000/svg" viewBox="0 0 33.58 33.58">
  <defs>
    <style>
      .cls-1, .cls-2 {
        fill: #fff;
      }

      .cls-2 {
        font-family: Arial-Black, Arial;
        font-size: 8.13px;
        font-weight: 800;
      }

      .cls-3 {
        fill: #00539f;
      }
    </style>
  </defs>
  <g id="Layer_1-2" data-name="Layer 1">
    <g>
      <circle class="cls-3" cx="16.79" cy="16.79" r="16.79"/>
      <path class="cls-1" d="m19.41,21.79c-.01-.16-.04-.32-.03-.48.04-1.16.12-2.32.41-3.45.12-.47.32-.93.48-1.39.06-.17.09-.34.15-.5.17-.44.34-.88.53-1.31.09-.2,0-.44-.21-.53-.57-.25-1.11-.56-1.57-.99-.81-.74-1.26-1.66-1.4-2.74-.1-.79-.04-1.55.24-2.31.36-.97.98-1.74,1.85-2.28,1.44-.89,2.95-.99,4.5-.3.92.41,1.61,1.08,2.11,1.96.12.22.32.39.55.48,1.8.75,2.94,2.54,2.87,4.48-.03.8-.27,1.55-.68,2.24-.12.21-.13.4-.03.62.84,1.92.33,4.19-1.36,5.52-1.64,1.29-3.79,1.36-5.54.22-.09-.06-.19-.13-.27-.2-.17-.16-.27-.35-.21-.59.1-.45.2-.91.33-1.35.07-.25.2-.5.34-.72.3-.45.91-.54,1.34-.21s.79.73,1.17,1.1c.16.16.31.35.5.57.04-.84.39-1.4,1.24-1.62-.3-.16-.55-.28-.8-.42-.64-.37-1.28-.74-1.91-1.12-.44-.27-.52-.64-.27-1.08.41-.74,1.14-1.02,2-.77.4.12.8.24,1.19.36-.07-.32-.23-.64-.19-.94.04-.3.27-.57.44-.89-.15.04-.29.08-.42.11-.52.11-1.03.23-1.55.3-.68.09-1.07-.55-.9-1.08.09-.26.33-.43.61-.43.46,0,.92,0,1.42-.03-.47-.46-.39-.98-.22-1.52-.42.2-.8.39-1.19.56-.23.1-.47.19-.71.27-.23.07-.55-.08-.65-.28-.1-.21-.03-.43.21-.62.4-.32.8-.64,1.21-.95.12-.09.25-.17.4-.26-.57-.38-1.32-.47-1.6-1.26-.1.39-.18.71-.27,1.02-.08.27-.18.55-.3.8-.05.11-.2.23-.31.23-.16.01-.25-.13-.27-.3-.07-.71-.14-1.41-.21-2.12,0-.04,0-.08-.01-.16-.46.34-.82.87-1.51.59.32.52.61,1,.9,1.48.08.14.15.29.19.44.02.1.02.26-.04.3-.06.05-.23.03-.31-.02-.55-.33-1.09-.67-1.63-1.02-.05-.03-.1-.07-.19-.13.01.15.02.27.03.38,0,.24-.06.35-.29.42-.21.06-.42.1-.68.16.17.09.31.17.46.24,1,.48,1.87,1.12,2.53,2.03.56.78.82,1.65.54,2.59-.12.4-.34.79-.55,1.15-.51.86-.89,1.77-1.13,2.74-.3,1.21-.4,2.44-.35,3.69,0,.08-.02.16-.03.24-.31-.31-.62-.62-.93-.93Z"/>
      <path class="cls-1" d="m13.38,21.43s-.05-.1-.05-.14c-.04-1.04-.2-2.06-.51-3.05-.27-.88-.69-1.69-1.15-2.47-.58-.98-.59-2.22.01-3.19s1.54-1.69,2.57-2.22c.17-.09.35-.18.58-.29-.22-.05-.38-.08-.54-.11-.39-.09-.46-.19-.43-.58,0-.05,0-.1,0-.15,0-.02,0-.04-.01-.09-.12.08-.23.17-.35.24-.48.3-.95.6-1.44.88-.09.05-.22.02-.34.03,0-.11-.06-.23-.02-.31.24-.46.49-.92.75-1.37.1-.17.21-.33.35-.56-.71.27-1.06-.24-1.51-.59-.02.33-.03.63-.06.93-.05.45-.1.9-.18,1.34-.02.12-.12.29-.22.32-.16.05-.28-.11-.34-.26-.07-.17-.14-.34-.2-.51-.11-.35-.21-.71-.32-1.06-.02-.06-.04-.12-.07-.24-.29.76-1.03.87-1.59,1.23.52.38,1.01.75,1.51,1.12.03.03.07.05.1.08.26.22.33.46.2.68-.14.24-.45.35-.74.22-.57-.24-1.12-.51-1.68-.77-.02-.01-.05-.02-.1-.05.03.2.06.38.1.55.08.33-.01.59-.27.81-.03.03-.06.08-.05.11.01.03.07.07.11.07.28,0,.56,0,.84,0,.19,0,.38-.02.57,0,.44.05.7.57.5.99-.2.42-.51.61-.97.53-.6-.11-1.19-.26-1.78-.4-.05-.01-.09-.02-.18-.04.1.16.18.31.28.44.25.31.33.63.15,1-.06.13-.11.27-.18.45.25-.08.47-.15.69-.21.31-.09.62-.19.94-.24.73-.12,1.46.33,1.71,1.03.12.33-.03.7-.33.88-.76.45-1.53.89-2.3,1.33-.13.07-.26.14-.43.23.84.22,1.2.77,1.23,1.58l.06.02c.07-.08.13-.18.2-.25.38-.41.76-.83,1.16-1.22.26-.25.58-.41.96-.36.42.06.7.33.83.7.2.6.35,1.21.49,1.83.05.24-.1.43-.29.57-.46.36-.98.61-1.54.76-1.3.36-2.54.2-3.7-.49-.97-.58-1.7-1.51-2.04-2.59s-.29-2.2.17-3.24c.1-.22.08-.47-.04-.68-1.21-2.07-.7-4.55,1.02-5.96.37-.3.8-.51,1.22-.74.23-.13.41-.29.54-.51.87-1.47,2.18-2.26,3.92-2.37,1.62-.1,3.18.7,4.04,2.08,1.03,1.68,1.02,3.37.12,5.02-.46.84-1.21,1.4-2.06,1.81-.13.06-.26.11-.38.18-.24.12-.25.2-.13.48.19.43.47,1.15.63,1.59.35.93.65,1.87.76,2.87.05.43.09.87.13,1.3,0,.05-.02.11-.03.16-.29.28-.57.56-.86.85Z"/>
      <path class="cls-1" d="m13.38,21.43c.29-.28.57-.56.86-.85.01.04.04.08.04.13,0,1.11.01,2.22-.01,3.34-.02.73.46,1.45,1.21,1.73.81.3,1.63.58,2.43.89.68.26,1.35.57,1.91,1.06.19.17-6.62.37-6.46.58-.83-.84,5.05-1.1,3.97-1.38-.76-.2-1.54-.33-2.29-.56-1.22-.37-1.93-1.59-1.78-2.85.07-.61.05-1.22.08-1.84,0-.08.03-.16.04-.24Z"/>
      <path class="cls-1" d="m19.41,21.79c.31.31.62.62.93.93.04.4.08.79.12,1.19,0,.04-.08.12-.12.13-.29.01-.59,0-.91,0-.02-.3-.04-.58-.04-.86,0-.42,0-.83,0-1.25,0-.05.02-.1.04-.15Z"/>
      <text class="cls-2" transform="translate(14.11 18.85)"><tspan x="0" y="0">+</tspan></text>
    </g>
  </g>
</svg>