<?xml version="1.0" encoding="UTF-8"?>
<svg id="Layer_2" data-name="Layer 2" xmlns="http://www.w3.org/2000/svg" viewBox="0 0 33.58 33.58">
  <defs>
    <style>
      .cls-1 {
        fill: #fff;
      }

      .cls-2 {
        fill: #004895;
      }
    </style>
  </defs>
  <g id="Layer_1-2" data-name="Layer 1">
    <g>
      <circle class="cls-2" cx="16.79" cy="16.79" r="16.79"/>
      <g>
        <path class="cls-1" d="m28.33,22.46c-.13.32-.42.35-.7.4-.27.04-.41.28-.32.54.02.05.04.1.05.15.15.42.09.57-.3.79-.08.05-.17.1-.25.14-.25.13-.44.09-.63-.11-.07-.07-.13-.15-.19-.22-.18-.21-.44-.21-.63,0-.07.08-.13.16-.21.24-.17.18-.37.21-.59.1-.7-.36-.72-.41-.48-1.16.01-.04.02-.08.04-.18-.12.06-.2.1-.27.14-2.27,1.31-4.55,2.62-6.82,3.94-.19.11-.32.1-.5,0-2.28-1.32-4.56-2.64-6.84-3.95-.07-.04-.14-.07-.21-.11-.01.01-.03.03-.04.04.05.14.09.29.14.43.1.32.04.49-.25.66-.03.02-.07.04-.1.06-.55.31-.62.3-1.04-.18-.2-.24-.45-.24-.65,0-.06.07-.12.15-.19.22-.2.19-.35.28-.92-.1-.28-.18-.36-.34-.27-.61.03-.09.06-.18.1-.28.1-.28-.03-.52-.31-.56-.72-.1-.7-.33-.69-.87,0-.4.11-.52.51-.61.15-.03.31-.07.42-.16.14-.12.17-.3.07-.49-.04-.07-.06-.15-.08-.23-.08-.32.01-.45.55-.75.28-.16.47-.14.67.07.07.08.14.16.24.27v-6.36c-.09.1-.17.19-.25.27-.19.2-.38.23-.63.1-.03-.01-.05-.03-.08-.05-.63-.37-.64-.38-.4-1.06.07-.22-.06-.47-.27-.52-.73-.16-.77-.21-.73-.98.01-.27.13-.41.39-.48.09-.02.18-.03.27-.05.33-.06.45-.28.34-.6-.02-.07-.05-.14-.07-.21-.02-.06-.03-.12-.04-.18,0-.46.41-.5.69-.68.19-.12.39-.05.56.14.06.07.12.14.18.21.19.23.45.23.64.01.44-.5.49-.51,1.07-.17.4.23.43.33.24.93.11-.06.19-.1.27-.15,2.25-1.3,4.5-2.59,6.74-3.9.2-.11.33-.11.52,0,2.24,1.3,4.49,2.6,6.74,3.9.07.04.14.08.28.15-.04-.14-.07-.22-.1-.31-.07-.26,0-.44.22-.58.04-.02.08-.04.12-.07.59-.34.64-.33,1.09.19.16.18.43.19.6.01.49-.54.51-.55,1.14-.17.32.19.37.35.25.71-.05.14-.12.29-.09.42.04.18.16.32.39.33.26,0,.49.1.63.35v.77c-.12.23-.32.34-.58.36-.06,0-.12.02-.18.03-.2.05-.34.29-.28.49.23.7.22.73-.43,1.09-.03.01-.05.03-.08.04-.22.11-.4.07-.57-.1-.08-.08-.16-.17-.26-.29v6.37c.11-.12.19-.21.27-.3.15-.17.35-.24.55-.12.28.17.68.23.69.68,0,.05-.02.1-.04.15-.03.08-.06.16-.08.23-.11.32,0,.54.33.6.27.05.54.1.66.39v.72Zm-14.99-3.2c-.06.08-.11.14-.16.2-.35.47-.45.99-.32,1.56.21.91,1.08,1.52,1.98,1.42.98-.11,1.67-.88,1.67-1.86,0-2.46,0-4.91,0-7.37,0-.19.03-.4,0-.58-.21-1.07-1.28-1.73-2.33-1.45-.93.25-1.48,1.21-1.36,1.98.07.4.21.76.46,1.09-.13.12-.25.22-.39.34-.09-.12-.18-.2-.23-.31-.14-.33-.27-.66-.41-1.01.02,0,0,0,0,0-.84.11-1.57.91-1.58,1.74-.02.96.66,1.81,1.55,1.94q.36.05.34.41s-.02.09-.03.14c-.47.03-.89-.14-1.28-.35-.03.03-.06.04-.08.06-.46.53-.61,1.14-.4,1.8.2.66.66,1.07,1.33,1.26.14.04.2,0,.23-.15.09-.47.3-.87.66-1.23.12.13.23.24.35.37Zm6.96-5.02c.36-.42.51-.89.48-1.4-.06-.93-.8-1.65-1.73-1.72-.93-.07-1.75.53-1.96,1.44-.05.21-.03.43-.03.65,0,2.46,0,4.91,0,7.37,0,.13,0,.26.03.38.17.8.76,1.34,1.6,1.47.69.11,1.45-.27,1.83-.92.38-.65.32-1.48-.16-2.09-.04-.05-.08-.11-.11-.15.12-.13.22-.26.33-.39.35.34.57.74.66,1.19.04.22.13.22.3.17.96-.28,1.53-1.25,1.3-2.22-.09-.35-.24-.65-.51-.89-.42.22-.82.4-1.29.35-.07-.48-.06-.5.23-.53,1.09-.14,1.83-1.19,1.59-2.26-.17-.76-.88-1.4-1.59-1.42-.11.47-.22.94-.6,1.3-.13-.12-.25-.22-.38-.34Zm.51-4.2h-1.48c0,.15.01.27,0,.39-.02.18.05.23.22.29.9.27,1.48.87,1.68,1.79.05.22.14.27.32.31,1.32.29,2.14,1.62,1.77,2.92-.11.39-.34.73-.53,1.13.03.04.11.13.17.22,1,1.37.26,3.34-1.39,3.7-.22.05-.29.12-.35.34-.22.91-.79,1.49-1.68,1.77-.08.02-.19.08-.2.13-.03.17,0,.35,0,.54h1.48v.92c.96-.55,1.88-1.09,2.83-1.64-.1-.03-.17-.04-.23-.06-.2-.06-.34-.19-.34-.4-.01-.61-.13-.98.73-1.05.01,0,.03,0,.04-.01.17-.05.31-.3.26-.47-.23-.74-.22-.75.45-1.12,0,0,.01,0,.02-.01.26-.14.44-.1.64.12.07.07.13.15.22.25v-6.37c-.11.12-.18.21-.27.3-.18.18-.37.21-.59.09-.14-.07-.28-.15-.41-.24-.21-.13-.27-.31-.21-.54.03-.1.07-.2.1-.3.1-.29-.03-.51-.33-.57-.1-.02-.19-.03-.29-.05-.23-.06-.38-.21-.37-.45.01-.33-.13-.72.28-.92.08-.04.17-.04.26-.06.08-.02.16-.03.3-.06-1.05-.61-2.06-1.19-3.1-1.79v.93Zm-6.55,13.5c0-.11-.01-.2,0-.28.04-.24-.06-.34-.3-.41-.88-.28-1.42-.89-1.62-1.8-.04-.17-.09-.23-.26-.26-1.24-.22-2.09-1.45-1.89-2.68.08-.5.31-.93.65-1.31-.06-.07-.11-.13-.15-.18-.48-.61-.65-1.3-.45-2.06.26-.98.91-1.56,1.89-1.78.07-.02.17-.08.18-.14.2-1.02.8-1.67,1.8-1.95.05-.01.13-.08.13-.12.02-.17,0-.34,0-.54h-1.49v-.91c-1.04.6-2.05,1.18-3.11,1.79.19.04.33.07.47.1.19.04.35.15.37.35.06.72.1,1.04-.67,1.11-.02,0-.04.01-.07.02-.19.04-.33.29-.28.48.23.73.21.77-.47,1.13-.26.13-.44.1-.64-.12-.07-.07-.13-.15-.21-.24v6.36c.1-.12.18-.2.25-.28.15-.17.35-.25.54-.13.28.17.69.23.69.68,0,.13-.06.26-.12.38-.07.16-.05.28.03.44.11.2.3.13.45.2.14.07.31.12.42.23.15.16.14.83,0,.99-.11.12-.27.18-.41.28.9.52,1.82,1.05,2.77,1.6v-.94h1.47Zm4.57.51v-1.08c-.73-.04-1.29-.35-1.78-.89-.01.2-.02.35-.03.5h-.47c0-.16-.02-.31-.03-.51-.49.57-1.07.85-1.78.9v1.08h-1.47c0,.17.01.31,0,.45-.03.2.06.29.22.38.94.53,1.87,1.08,2.81,1.62.07.04.14.07.25.13v-1.19h.51v1.2c1.09-.63,2.14-1.23,3.18-1.84.04-.02.08-.08.08-.12,0-.21,0-.41,0-.63h-1.48Zm-4.08-14.5c0,.32,0,.6,0,.87,0,.16.04.22.21.24.49.04.92.25,1.29.58.09.08.16.17.24.26.02,0,.04-.02.06-.03v-.48h.51v.55c.5-.57,1.08-.86,1.79-.91v-1.09h1.48c0-.17-.01-.31,0-.45.02-.19-.05-.29-.22-.39-.94-.53-1.87-1.08-2.81-1.62-.07-.04-.14-.08-.25-.13v1.16h-.5v-1.13c-.05,0-.08,0-.09.01-1.03.59-2.05,1.18-3.08,1.78-.04.03-.09.09-.09.13-.01.2,0,.4,0,.63h1.48Zm11.81,14.47q.37-.16.25-.5c-.07-.21-.11-.37.01-.62.2-.38.45-.55.86-.57.05,0,.12-.08.13-.14.04-.18,0-.32-.23-.33-.13,0-.25-.03-.38-.07-.06-.02-.12-.06-.16-.1-.26-.4-.44-.81-.13-1.26,0,0,0-.03,0-.06-.1-.06-.21-.12-.32-.18-.27.24-.41.56-.9.56-.48,0-.61-.35-.87-.56-.36.17-.37.18-.24.47.12.28.15.52-.09.75-.02.01-.03.04-.03.06-.06.28-.25.36-.51.37-.04,0-.09.02-.13.02-.16.01-.24.07-.24.25,0,.19.09.22.24.24.13.02.27.05.4.08.05.01.11.05.14.1.27.4.44.81.13,1.26,0,0,0,.03,0,.04.31.23.32.24.54-.05.17-.22.34-.36.63-.28.09.03.19-.02.29,0,.08,0,.18.03.23.08.14.14.26.29.39.45Zm-17.8,0c.36-.16.37-.16.24-.49-.1-.25-.09-.44.06-.7.17-.32.37-.47.71-.48.15,0,.24-.06.24-.25,0-.19-.1-.23-.24-.25-.12-.02-.24-.03-.35-.07-.07-.02-.14-.06-.18-.11-.27-.4-.43-.81-.13-1.26,0,0,0-.03,0-.06-.1-.06-.21-.12-.32-.18-.27.24-.41.56-.9.56-.49,0-.61-.34-.88-.57-.12.07-.22.13-.33.2.03.08.04.14.06.19.14.3.16.56-.06.88-.17.25-.32.38-.6.4-.03,0-.06,0-.09.01-.14.02-.23.06-.23.23,0,.18.06.24.23.25.13.01.27.05.4.08.14.03.51.7.47.84-.04.13-.09.25-.14.38-.02.06-.04.13-.06.2.12.07.23.13.34.19.27-.24.4-.55.87-.55.49,0,.63.31.89.55Zm16.04-10.38c.14-.16.26-.31.39-.45.05-.05.13-.1.2-.1.43,0,.87-.03,1.1.46.02.03.13.04.18.03.19-.06.27-.17.16-.37-.05-.09-.06-.2-.11-.3-.06-.13-.03-.22.05-.33.28-.36.46-.49.92-.65.05-.02.1-.09.11-.14.04-.19,0-.31-.23-.33-.28-.02-.49-.11-.67-.41-.2-.34-.19-.6-.03-.9.07-.14.01-.21-.11-.28-.12-.07-.21-.1-.3.04-.19.3-.42.44-.83.41-.27-.02-.45-.06-.59-.28-.02-.04-.06-.07-.09-.1-.09-.14-.18-.16-.33-.07-.15.09-.15.17-.09.31.14.3.22.59-.07.85-.01,0-.02.03-.02.04-.05.28-.26.36-.51.37-.04,0-.09.03-.13.03-.17,0-.23.08-.23.25,0,.18.09.22.23.24.12.02.24.04.35.06.14.03.55.68.52.82,0,.04-.03.07-.04.11-.06.17-.12.33-.18.5.12.07.23.13.34.2Zm-17.81,0c.28-.28.44-.65.96-.55.25.05.44.07.59.29.02.04.06.07.09.1.09.14.18.15.33.07.15-.09.15-.18.09-.31-.14-.3-.15-.55.06-.86.16-.25.31-.39.59-.4.02,0,.04-.01.07-.01.17,0,.25-.07.25-.26,0-.19-.11-.22-.25-.24-.12-.02-.24-.03-.35-.07-.06-.02-.13-.06-.17-.12-.26-.39-.42-.79-.12-1.24,0,0,0-.03,0-.04-.3-.24-.32-.26-.54.04-.17.23-.36.37-.66.27-.03,0-.06,0-.09,0-.28.11-.43-.05-.57-.25-.03-.04-.06-.07-.09-.1-.09-.13-.17-.18-.33-.08-.16.09-.16.19-.09.32.14.29.21.57-.07.83-.04.03-.06.09-.07.14-.04.18-.16.24-.32.25-.07,0-.13.02-.2.03-.34.07-.35.08-.28.45.32.12.67.08.91.5.24.42.01.7-.04,1.05.11.06.21.12.33.19Z"/>
        <path class="cls-1" d="m15.54,19.4c-.05.34-.05.34-.36.28-.63-.13-1.14-.66-1.2-1.27,0-.1-.06-.24.12-.22.14.02.35-.13.4.14.1.47.37.75.85.85.08.01.13.15.19.23Z"/>
        <path class="cls-1" d="m15.23,13.71h.47c.18.68-.71,1.58-1.48,1.47,0-.12-.01-.25,0-.37,0-.05.07-.12.11-.13.54-.09.82-.43.89-.97Z"/>
        <path class="cls-1" d="m18.09,19.68c0-.09,0-.18,0-.26-.02-.17.03-.24.22-.28.38-.07.66-.31.73-.7.05-.26.18-.29.38-.26.05,0,.1.01.15.02.16.71-.7,1.59-1.48,1.49Z"/>
        <path class="cls-1" d="m19.36,14.7v.48c-.72.14-1.54-.65-1.49-1.46h.49c.07.59.41.91,1,.99Z"/>
        <path class="cls-1" d="m24.15,17.03v-.46h.47v.46h-.47Z"/>
        <path class="cls-1" d="m23.05,16.56h.45v.47h-.45v-.47Z"/>
        <path class="cls-1" d="m10.33,16.56v.46h-.46v-.46h.46Z"/>
        <path class="cls-1" d="m9.23,17.03h-.45v-.47h.45v.47Z"/>
        <path class="cls-1" d="m17.08,23.17c-.04.22-.03.4-.12.51-.05.06-.31.05-.37-.01-.07-.08-.09-.33-.03-.39.1-.09.29-.07.51-.11Z"/>
        <path class="cls-1" d="m16.56,24.32h.46v.47h-.46v-.47Z"/>
        <path class="cls-1" d="m17.02,9.23h-.46v-.48h.46v.48Z"/>
        <path class="cls-1" d="m16.56,10.33v-.47h.47v.47h-.47Z"/>
        <path class="cls-1" d="m25.72,20.99c.6.01,1.08.51,1.07,1.1,0,.61-.52,1.1-1.14,1.09-.59-.02-1.08-.53-1.06-1.12.02-.61.52-1.09,1.13-1.07Zm.56,1.09c0-.32-.26-.58-.59-.58-.33,0-.58.26-.57.59,0,.32.27.59.59.58.32,0,.58-.27.58-.59Z"/>
        <path class="cls-1" d="m7.9,20.99c.61,0,1.11.51,1.09,1.11-.01.61-.51,1.09-1.12,1.08-.59,0-1.08-.51-1.08-1.1,0-.6.5-1.09,1.11-1.09Zm.57,1.09c0-.33-.26-.58-.59-.58-.32,0-.58.26-.58.59,0,.32.27.59.59.58.32,0,.58-.27.58-.59Z"/>
        <path class="cls-1" d="m26.8,11.7c0,.6-.51,1.11-1.1,1.11-.6,0-1.11-.51-1.1-1.11,0-.59.5-1.09,1.09-1.1.6,0,1.11.5,1.11,1.1Zm-1.1-.58c-.33,0-.59.26-.59.58,0,.32.25.57.57.58.33,0,.59-.24.6-.57,0-.33-.25-.59-.58-.59Z"/>
        <path class="cls-1" d="m6.79,11.7c0-.6.51-1.11,1.11-1.1.6,0,1.1.51,1.1,1.11,0,.59-.5,1.09-1.1,1.09-.6,0-1.11-.5-1.11-1.1Zm1.68-.01c0-.33-.27-.58-.6-.57-.32,0-.57.26-.57.58,0,.33.26.59.59.58.33,0,.58-.26.58-.59Z"/>
      </g>
    </g>
  </g>
</svg>