<?xml version="1.0" encoding="UTF-8"?>
<svg id="Layer_2" data-name="Layer 2" xmlns="http://www.w3.org/2000/svg" viewBox="0 0 33.58 33.58">
  <defs>
    <style>
      .cls-1 {
        fill: #fff;
      }

      .cls-2 {
        fill: #004895;
      }
    </style>
  </defs>
  <g id="Layer_1-2" data-name="Layer 1">
    <g>
      <circle class="cls-2" cx="16.79" cy="16.79" r="16.79"/>
      <path class="cls-1" d="m30.56,14.52c-.56,1.59-1.11,3.18-1.67,4.77-.16.46-.32.91-.48,1.37-.26.78-.77,1.33-1.48,1.7-.56.3-1.14.56-1.7.87-.31.17-.59.39-.94.63.51.38.39.84.33,1.29-.14,1.23-.27,2.47-.43,3.7-.09.67-.54,1.04-1.22,1.05-.33,0-.67,0-1,0-.3,0-.48-.16-.48-.39,0-.25.18-.41.5-.41.33,0,.67,0,1,0,.19,0,.36-.06.39-.26.11-.77.19-1.55.29-2.35-1.73-.2-3.42-.39-5.13-.59-.1.84-.19,1.65-.28,2.46-.09.77-.13.75.69.74.33,0,.67,0,1,0,.29,0,.47.17.47.41,0,.24-.18.39-.48.4-.49,0-.97,0-1.46,0-.71-.02-1.15-.49-1.07-1.19.17-1.59.35-3.18.54-4.77.06-.54.35-.73,1.06-.73.11-.34.23-.68.32-1.03.22-.81.64-1.5,1.18-2.12.46-.53.87-1.11,1.51-1.45.84-.44,1.68-.86,2.52-1.28.44-.22.88-.22,1.33.05.05-.09.1-.16.14-.24.6-1.19,1.2-2.37,1.8-3.56.53-1.06,1.86-1.23,2.5-.29.12.17.17.39.26.58v.65Zm-10.69,8.79c.05.01.13.03.21.04,1.02.12,2.04.22,3.05.35.23.03.37-.03.5-.2.36-.47.82-.8,1.35-1.05.53-.26,1.06-.53,1.59-.8.49-.25.87-.62,1.05-1.14.7-1.98,1.38-3.97,2.07-5.95.02-.06.04-.12.05-.18.08-.42-.08-.75-.42-.86-.31-.1-.6.07-.79.44-.65,1.28-1.29,2.57-1.95,3.85-.09.17-.11.32-.06.51.16.6-.03,1.1-.56,1.41-.55.32-1.13.59-1.7.88-.15.08-.3.16-.46.21-.19.07-.36,0-.46-.18-.11-.19-.07-.37.1-.51.08-.06.17-.11.25-.15.58-.29,1.16-.58,1.73-.88.36-.19.43-.42.25-.78-.16-.31-.45-.44-.76-.28-.85.42-1.68.85-2.52,1.28-.13.07-.26.16-.37.27-1.06,1.03-1.93,2.18-2.15,3.72Zm4.01,1.29c-1.73-.2-3.42-.39-5.13-.59-.04.37-.08.71-.12,1.08,1.72.2,3.41.39,5.12.58.04-.36.08-.7.13-1.07Z"/>
      <path class="cls-1" d="m14.17,13.3c-.34-.52-.69-1.02-1-1.54-.6-1-1.03-2.07-1.19-3.24-.16-1.11.19-2.05.89-2.87.44-.52.94-1,1.45-1.45.55-.48,1.25-.67,1.97-.73.91-.08,1.78.03,2.57.52.25.15.48.36.68.57.49.51,1,1.01,1.42,1.58.26.35.38.81.52,1.23.1.3-.02.52-.27.58-.24.07-.44-.08-.51-.39-.16-.66-.48-1.22-.95-1.69-.04-.04-.09-.07-.11-.09-.1.59-.17,1.18-.32,1.76-.31,1.16-.92,2.18-1.63,3.14-1.54,2.11-3.5,3.78-5.57,5.33-.08.06-.15.12-.27.21.33.06.62.12.91.17.51.09.59.18.59.69,0,.22,0,.44,0,.73.27-.21.5-.38.72-.55,1.65-1.3,3.2-2.71,4.5-4.37.81-1.04,1.5-2.15,1.91-3.42.02-.07.05-.14.08-.2.1-.18.26-.26.45-.2.21.06.33.21.28.43-.04.23-.12.45-.2.67-.38.99-.91,1.89-1.53,2.75-.08.12-.17.23-.27.38.58.48,1.14.97,1.73,1.42.58.45,1.18.88,1.78,1.32.18.13.33.26.28.51-.05.25-.25.3-.46.34-.48.08-.95.19-1.43.26-.18.03-.22.1-.21.26,0,.36,0,.72,0,1.08,0,.2-.04.39-.24.48-.19.09-.37.02-.52-.11-1.04-.84-2.08-1.69-3.12-2.53-.1-.08-.2-.18-.31-.27-.51.43-.99.87-1.5,1.28-.65.53-1.31,1.04-1.99,1.53-.12.09-.36.14-.49.08-.12-.06-.21-.28-.23-.44-.04-.37-.02-.75-.02-1.13,0-.15-.05-.2-.19-.23-.5-.08-.99-.18-1.48-.27-.2-.04-.37-.1-.43-.32-.06-.22.06-.37.23-.5,1.11-.87,2.22-1.74,3.33-2.61.06-.05.12-.11.18-.16Zm2.05-2.04c-1.25-1.64-2.29-3.35-2.31-5.53-.74.71-1.24,1.48-1.14,2.48.16,1.73,1.01,3.15,2.04,4.54.48-.51.95-.99,1.42-1.49Zm.52-.66c.79-1.03,1.45-2.08,1.81-3.31.05-.18.02-.27-.15-.36-1.12-.57-2.22-.55-3.33.02-.17.09-.17.18-.12.34.36,1.22,1,2.28,1.79,3.31Zm.58,4.91c.93.77,1.85,1.53,2.83,2.34,0-.3,0-.5,0-.69,0-.59.06-.65.64-.75.27-.05.55-.11.84-.16-.97-.78-1.91-1.54-2.85-2.29-.47.5-.94,1.01-1.46,1.56Zm1.47-9.3c-.06-.45-.1-.83-.15-1.21-.02-.2-.14-.32-.31-.4-1.07-.48-2.14-.47-3.2.03-.09.04-.19.12-.22.21-.16.42-.19.86-.14,1.34,1.33-.63,2.65-.65,4.03.02Z"/>
      <path class="cls-1" d="m7.45,17.36c.62-.38,1.16-.14,1.71.15.45.24.9.49,1.37.69,1.27.53,2.09,1.56,2.84,2.64.45.64.61,1.39.83,2.12.06.19.13.27.35.26.44-.02.73.22.79.68.12.88.21,1.77.31,2.65.08.7.16,1.39.23,2.09.09.78-.33,1.27-1.12,1.27-1.48,0-2.97,0-4.45,0-.7,0-1.15-.4-1.23-1.1-.17-1.37-.31-2.75-.47-4.13-.03-.3.07-.55.36-.79-.26-.2-.49-.41-.75-.56-.59-.33-1.2-.61-1.8-.92-.77-.39-1.31-.98-1.57-1.82-.61-1.94-1.23-3.87-1.84-5.8-.19-.62-.16-1.23.34-1.7.69-.67,1.75-.51,2.22.35.3.53.53,1.1.79,1.65.32.68.63,1.35.94,2.03.04.08.08.16.13.26Zm6.03,5.95c-.11-.36-.2-.68-.3-1.01-.38-1.2-1.15-2.16-2.14-2.88-.81-.59-1.79-.95-2.69-1.41-.21-.11-.41-.04-.57.11-.35.33-.29.77.14.98.62.32,1.24.62,1.85.94.25.13.32.35.22.56-.1.21-.33.29-.58.16-.68-.34-1.37-.67-2.04-1.05-.57-.32-.74-.84-.58-1.48.03-.12.03-.27-.02-.38-.59-1.3-1.2-2.59-1.8-3.89-.05-.1-.11-.2-.19-.29-.17-.2-.38-.26-.63-.17-.24.08-.4.26-.41.52,0,.18.01.38.07.56.6,1.92,1.21,3.83,1.82,5.75.19.6.57,1.03,1.13,1.31.38.2.76.4,1.16.58.72.33,1.38.73,1.87,1.37.05.07.18.1.27.1.73-.07,1.47-.15,2.2-.24.4-.05.8-.1,1.22-.15Zm-3.83,3.17c.09.79.17,1.53.26,2.27.03.23.17.34.41.34,1.49,0,2.99,0,4.48,0,.27,0,.33-.08.3-.35-.06-.61-.13-1.22-.2-1.82-.04-.33-.08-.67-.13-1.02-1.72.2-3.4.39-5.12.59Zm-.1-.81c1.73-.2,3.42-.39,5.13-.59-.04-.37-.08-.71-.12-1.08-1.72.2-3.41.39-5.12.59.04.37.08.7.12,1.08Z"/>
    </g>
  </g>
</svg>