<?xml version="1.0" encoding="UTF-8"?>
<svg id="Layer_2" data-name="Layer 2" xmlns="http://www.w3.org/2000/svg" viewBox="0 0 98 99.39">
  <defs>
    <style>
      .cls-1 {
        fill: #00539f;
      }
    </style>
  </defs>
  <g id="Layer_1-2" data-name="Layer 1">
    <g>
      <path class="cls-1" d="m96.33,36.67c1.64,5.44,1.86,11.04,1.54,16.65-.22,3.84-1.07,7.58-2.27,11.25-1.35,4.11-3.23,7.95-5.61,11.53-2.31,3.47-5.05,6.57-8.21,9.33-3.5,3.05-7.32,5.6-11.51,7.55-2.25,1.04-4.61,1.85-6.98,2.61-2.52.81-5.11,1.4-7.77,1.54-2.06.11-4.12.26-6.18.28-.85,0-1.47.37-2.13.75-.6.34-1.15.76-1.76,1.08-.25.13-.58.11-.88.15,0-.27-.1-.58-.01-.82.67-1.7,1.34-3.4,2.06-5.07,1.36-3.16,2.76-6.3,4.13-9.46,1.22-2.81,2.5-5.61,3.63-8.46,1.29-3.27,2.5-6.58,3.65-9.91.67-1.95,1.43-3.94,1.6-5.96.16-1.88.91-2.83,2.43-3.78,2.08-1.3,3.27-3.46,3.96-5.78.48-1.61.82-3.3.92-4.97.24-3.81-.98-7.17-3.47-10.1-2.2-2.58-4.25-5.28-6.45-7.86-1.73-2.03-3.59-3.96-5.4-5.93-3.31-3.58-6.63-7.14-9.94-10.71-2.75-2.97-5.49-5.95-8.25-8.92-.5-.54-1.04-1.03-1.68-1.66,3.32.68,6.46,1.39,9.62,1.95.96.17,2-.02,3-.11,1.21-.1,2.42-.37,3.63-.38,2.34-.02,4.71-.09,7.02.2,2.74.35,5.46.99,8.15,1.63,4.16.99,8.01,2.77,11.63,5,2,1.23,3.84,2.71,5.73,4.11.74.55,1.42,1.18,2.11,1.8,4.81,4.34,8.44,9.55,11.19,15.39.38.81.69,1.66,1.03,2.49.07.17.11.35.16.52"/>
      <path class="cls-1" d="m.12,28.15c.91.61,1.82,1.21,2.72,1.83,4.49,3.14,8.96,6.31,13.9,8.71,2.83,1.37,5.77,2.53,8.72,3.62,2.53.93,5.16,1.61,7.73,2.42,2.81.89,4.27,3.51,3.81,6.68-.42,2.93-1.84,5.36-3.61,7.66-2.85,3.71-5.64,7.48-7.8,11.65-1.48,2.86-2.54,5.86-3.14,9.05-.83,4.42-.62,8.84-.3,13.46-.88-.95-1.69-1.79-2.46-2.66-4.01-4.58-7.79-9.34-10.87-14.63-2.09-3.58-3.83-7.31-5.1-11.27-1.6-5.01-2.4-10.13-2.25-15.38.09-3.25.51-6.46,1.28-9.63.29-1.21.67-2.4.93-3.62.09-.42.05-.96-.15-1.34-1.14-2.16-2.35-4.29-3.53-6.43.04-.04.08-.08.12-.13Z"/>
      <path class="cls-1" d="m45.14,44.12c-1.77-.46-2.96.42-4.31,1.47.07-.69.04-1.21.18-1.69.94-3.23-.58-5.57-2.91-7.41-2.21-1.74-4.62-3.26-7.03-4.72-6.18-3.76-12.42-7.43-18.63-11.14-.2-.12-.38-.29-.66-.5.93-1.08,1.82-2.14,2.74-3.18.52-.59,1.13-1.11,1.64-1.71.33-.39.57-.33.92-.05,3.22,2.57,6.43,5.15,9.68,7.68,5.83,4.54,11.72,9.01,17.92,13.05.19.13.41.22.43.23-8.84-7.48-17.84-15.09-26.98-22.83.37-.28.56-.41.74-.56.23-.18.45-.36.73-.57,1.61,1.28,3.21,2.54,4.79,3.81,5.69,4.59,11.38,9.2,17.07,13.79,2.32,1.88,4.64,3.76,6.98,5.61.29.23.68.4,1.05.47,1.45.25,2.85.62,4.05,1.52,1.49,1.12,2.17,2.69,1.96,4.46-.39,3.35-2.04,6.05-4.92,7.85-1.94,1.21-4.14,1.47-6.29.68-2.59-.96-2.6-3.2-.79-5.12.4-.43.98-.69,1.63-1.15Z"/>
      <path class="cls-1" d="m34.33,95.03c.45-1.35.86-2.57,1.27-3.8,1.08-3.24,2.17-6.48,3.25-9.72.86-2.59,1.76-5.16,2.54-7.78.78-2.64,1.52-5.31,2.11-8,.33-1.5.32-3.11-.65-4.45-.35-.48-.93-.84-1.46-1.14-.98-.56-2.02-1.02-2.99-1.58-.22-.13-.42-.55-.39-.8.19-1.36.44-2.72.72-4.07.08-.37.31-.73.53-1.05.76-1.14,1.65-1.2,2.47-.13,1.01,1.32,2.2,2.34,3.98,2.49-.02.08-.05.15-.07.23-.76.07-1.53.13-2.43.21.2.13.31.25.45.29,1.86.62,3.55-.05,5.25-.68,1.14-.42,2.29-.61,3.51-.3,1.38.36,2.05,1.07,1.89,2.49-.15,1.34-.36,2.71-.81,3.96-1.09,3.01-2.28,5.98-3.56,8.92-1.34,3.08-2.89,6.06-4.22,9.14-1.11,2.58-2.06,5.22-3.04,7.85-.91,2.46-1.76,4.94-2.64,7.41-.22.62-.32,1.51-.77,1.76-.43.24-1.24-.15-1.87-.32-.99-.27-1.97-.6-3.08-.94Z"/>
      <path class="cls-1" d="m30.55,93.56c-.69-.31-1.4-.6-2.07-.96-.15-.08-.29-.44-.25-.62.35-1.41.74-2.82,1.13-4.22,1.08-3.86,2.16-7.71,3.25-11.56.68-2.4,1.38-4.79,2.06-7.19.76-2.68,1.52-5.36,2.24-8.05.33-1.23.62-1.57,1.47-1.42.19.03.43.14.52.29.34.59.9.79,1.51.88.77.11,1.11.59,1.3,1.3.4,1.52.19,3.03-.17,4.5-.88,3.67-2.44,7.1-3.98,10.53-1.95,4.31-3.9,8.63-5.8,12.96-.5,1.13-.81,2.35-1.21,3.55Z"/>
      <path class="cls-1" d="m57.09,38.44c1.79.26,2.92,1.21,3.59,2.7.84,1.86.8,3.71-.32,5.47-.62.96-1.73,1.37-2.68,1.06-.55-.18-.82-.53-.7-1.08.16-.72.35-1.44.6-2.14,1.03-2.87,1.01-3.37-.49-6.02Z"/>
      <path class="cls-1" d="m55.31,49.48c1.07,0,1.83.79,1.81,1.86-.02,1.01-.8,1.8-1.8,1.82-1.01.02-1.87-.83-1.88-1.85,0-1.05.8-1.84,1.86-1.84Z"/>
    </g>
  </g>
</svg>