<?xml version="1.0" encoding="UTF-8"?>
<svg id="Layer_2" data-name="Layer 2" xmlns="http://www.w3.org/2000/svg" viewBox="0 0 97.87 98.71">
  <defs>
    <style>
      .cls-1 {
        fill: #fff;
      }

      .cls-2 {
        fill: #00539f;
      }
    </style>
  </defs>
  <g id="Layer_1-2" data-name="Layer 1">
    <g>
      <path class="cls-2" d="m49.24,98.71C21.63,98.65-.06,76.85,0,49.24.06,21.88,22.05-.1,49.25,0c26.82.1,48.73,22.31,48.62,49.31-.11,27.01-22.21,49.46-48.63,49.4Z"/>
      <path class="cls-1" d="m37.39,47.93c1.93-.39,3.78-.76,5.88-1.19-2.38-2.73-3.55-5.68-2.51-9.15.76-2.52,2.1-4.81,4.3-6.16,4.79-2.92,8.41-2.17,11.98,1.33,4.27,4.19,4.13,7.59-.59,14.73,2.71.82,5.38,1.62,8.44,2.55.83-4.27,1.64-8.38,2.42-12.51.15-.82.21-1.66.22-2.49.03-1.7-.42-3.29-1.78-4.36-6.48-5.12-9.05-12.24-10.43-20-.15-.87-.41-1.73-.45-2.6-.02-.45.32-.92.49-1.38.31.36.81.69.91,1.1.56,2.34,1,4.72,1.55,7.06.1.41.53.75.86,1.08.35.36.76.66,1.14.99-.34.31-.68.62-1.1,1,1.1,3.44,2.86,6.61,5.51,9.25.49.49.98,1,1.53,1.42,2.85,2.2,3.73,5.13,3.1,8.54-.76,4.1-1.61,8.18-2.52,12.25-.2.91-.06,1.47.47,2.24.74,1.08,1.4,2.35,1.61,3.62.66,3.99.03,7.69-2.58,11.02-3.12,3.97-4.93,8.58-5.81,13.54.1.07.16.15.24.17.52.1,1.04.19,1.57.29-.39.41-.71,1.05-1.19,1.2-.92.28-1.23.84-1.33,1.69-.29,2.3-.58,4.61-.95,6.89-.06.37-.56.68-.85,1.01-.19-.37-.59-.76-.55-1.1.82-7.39,1.72-14.78,5.57-21.38.86-1.48,1.87-2.88,2.85-4.29,2.08-2.98,2.07-6.28,1.4-9.62-.36-1.78-1.49-2.99-3.39-3.49-2.56-.66-5.06-1.51-7.61-2.22-.39-.11-1.01-.13-1.27.1-2.8,2.38-5.57,1.5-8.22-.16-1.1-.69-2.09-.82-3.27-.54-.95.22-1.91.49-2.87.51-2.3.04-2.92,1.42-3.51,3.4-.78,2.61-.53,4.41,1.61,6.38,4.56,4.2,6.17,9.91,7.01,15.85.75,5.28,1.39,10.58,2.08,15.87.01.09.06.2.03.27-.21.43-.44.86-.66,1.28-.27-.37-.73-.71-.78-1.11-.43-3.27-.68-6.56-1.2-9.81-.71-4.34-1.61-8.66-2.45-12.98-.08-.43-.28-.84-.5-1.48-1.35,2.23-1.91,4.51-1.98,6.79-.17,5.14-.06,10.29-.1,15.43,0,.7.57,1.86-.58,1.96-1.18.1-.84-1.16-.89-1.83-.49-6.35-.82-12.71.67-18.98.35-1.47.99-2.89,1.64-4.26.33-.68.39-1.18-.1-1.75-1.79-2.06-3.55-4.15-5.39-6.17-.63-.69-2.35-.42-3,.72-.63,1.1-1,2.48-1.03,3.75-.02,1.09.36,2.35.97,3.27,1.86,2.81,2.66,5.86,2.87,9.18.28,4.49.69,8.98,1.04,13.47,0,.09.04.2,0,.28-.23.43-.47.84-.71,1.26-.25-.39-.68-.76-.72-1.17-.24-2.35-.36-4.72-.57-7.08-.05-.56-.31-1.1-.48-1.66-.06-.21-.21-.44-.18-.64.63-4.58.02-8.88-2.55-12.84-1.23-1.89-1.52-4.06-1.08-6.3.42-2.14,1.73-3.39,3.79-4.01.45-.14.77-.69,1.14-1.06.06-.06.04-.18.08-.26,1.73-3.93.94-7.85.04-11.8-.65-2.84-.33-5.63.86-8.3.06-.13.08-.27.14-.39,3.82-7.24,4.22-14.99,3.36-22.92-.1-.97-.17-1.95-.13-2.92.02-.36.39-.71.6-1.06.28.3.77.59.8.92.7,8.72,1.36,17.38-2.79,25.65-2.36,4.7-2.07,9.34-.09,14.13Zm4.18-7.69c.58,1.38.99,2.86,1.79,4.1,1.37,2.13,3.5,3.38,5.82,4.32,1.41.57,2.69.4,3.93-.48,2.05-1.45,3.65-3.27,4.79-5.5,2.43-4.77-2.04-11.69-7.42-11.51-4.54.15-8.59,4.37-8.91,9.06Z"/>
      <path class="cls-1" d="m91.73,49.28c-.72.35-1.07.64-1.45.67-1.02.07-2.05-.04-3.06.07-.45.05-.9.42-1.3.7-.63.44-1.17,1.06-1.85,1.37-.58.27-1.22.26-1.32,1.12-.02.2-.6.53-.81.46-.25-.09-.5-.52-.53-.82-.22-2.14-.95-2.85-3.07-2.85-1.16,0-2.32.04-3.48-.04-.31-.02-.6-.41-.9-.63.3-.28.58-.77.89-.79,1.34-.09,2.69-.04,4.04-.04,1.22,0,2.49-1.35,2.57-2.6.03-.44.3-.86.46-1.3.33.3.64.61.98.89.28.23.59.44.89.64.61.39,1.55.62,1.79,1.17.55,1.21,1.41,1.26,2.47,1.2.79-.04,1.58-.06,2.36.03.33.04.64.36,1.3.77Zm-8.82,1.69c.22,0,.44,0,.66,0,.42-.61,1.09-1.18,1.19-1.83.13-.9-.52-1.55-1.53-1.55-1.01,0-1.66.67-1.53,1.56.09.65.79,1.21,1.21,1.81Z"/>
      <path class="cls-1" d="m10.17,48.47c1.04.14,2.28.13,2.88-1.41.11-.29.53-.54.86-.66.67-.24,1.1-.53,1.15-1.34.02-.29.56-.54.87-.82.19.32.53.63.55.97.11,1.45,1.94,3.26,3.39,3.26.79,0,1.59-.07,2.36.05.35.05.63.49.95.76-.3.23-.56.57-.9.65-.48.12-1.05.17-1.52.03-2.03-.6-2.95.97-4.1,2.05-.2.18-.03.71-.15,1.03-.15.37-.43.69-.65,1.03-.27-.26-.76-.5-.78-.77-.05-.78-.4-1.17-1.12-1.36-.25-.07-.58-.24-.68-.46-.93-1.98-2.7-1.43-4.29-1.52-.68-.04-1.89.47-1.86-.75.03-1.17,1.22-.59,1.91-.72.27-.05.56,0,1.11,0Zm4.72,2.48h0c.41.01.79-.16,1.06-.47.37-.42.75-.83.84-1.3.17-.91-.48-1.56-1.47-1.59-1-.03-1.67.6-1.57,1.51.08.65.73,1.24,1.13,1.85Z"/>
      <path class="cls-1" d="m17.82,35.33c-.19-.45-.4-.9-.57-1.36-.18-.47-.56-1.01-.46-1.42.36-1.51-.61-2.03-1.66-2.57-.53-.28-1.11-.54-1.53-.95-.37-.35-.54-.9-.81-1.36.53.04,1.07.05,1.59.15.26.05.53.22.71.42,1.63,1.74,3.65,1.15,5.59.94.29-.03.5-.51.81-.65.36-.17.79-.22,1.2-.31.01.37.15.8.02,1.11-.53,1.19.09,3.53,1.2,4.22.75.46,1.53.88,2.24,1.4.23.17.25.61.37.93-.36.11-.71.25-1.08.3-.15.02-.32-.17-.48-.26-2.75-1.52-2.76-1.53-5.45-.52-.25.1-.38.5-.63.65-.28.17-.67.38-.93.3-.24-.08-.37-.51-.54-.79.14-.07.28-.14.42-.22Zm3.51-2.59l-.02-1.08c-.51-.4-1-.9-1.55-.97-.93-.13-1.51.59-1.5,1.58.01,1,.65,1.67,1.56,1.52.55-.09,1.02-.62,1.52-1.04Z"/>
      <path class="cls-1" d="m72.89,36.14c-.26-.2-.56-.32-.64-.53-.08-.21-.02-.56.12-.74.19-.24.5-.41.78-.56,1.06-.54,1.95-1.1,1.74-2.59-.12-.86,1.03-1.7.24-2.69.36-.2,1.02-.61,1.05-.57.54.76,1.49.44,2.06.78,2.29,1.34,3.72-.36,5.4-1.27.24-.13.47-.4.71-.41.4-.01.8.13,1.21.21-.14.34-.19.83-.45,1.01-1.07.73-2.24,1.31-3.29,2.07-.41.29-.64.87-.85,1.37-.19.46-.28.97-.36,1.47-.11.63-.14,1.26-.24,1.89-.06.37-.18.74-.27,1.1-.36-.18-.73-.34-1.08-.54-.42-.25-.81-.57-1.25-.78-.28-.14-.72-.04-.93-.22-.98-.87-1.76-.27-2.59.24-.43.26-.88.5-1.36.77Zm6.42-3.25l.04-1.2c-.46-.41-.91-.89-1.43-.99-.94-.18-1.56.54-1.61,1.49-.05.97.59,1.7,1.5,1.6.53-.06,1.01-.51,1.5-.9Z"/>
      <path class="cls-1" d="m22.71,70.36c-.5-.19-.75-.21-.82-.33-.93-1.69-2.92-.38-4.09-1.44-.1-.09-.58.19-.85.35-.92.54-1.79,1.17-2.75,1.62-.39.18-.95,0-1.43-.01.25-.42.43-.91.76-1.25.31-.32.77-.51,1.17-.74,1.17-.68,2.45-1.16,2.14-3.02-.17-1.05,1.13-1.86.87-3.18-.12-.6.62-.61,1.22-.18.78.54,1.79.76,2.53,1.34,1.18.93,1.71-.34,2.53-.58.26-.08.49-.37.73-.36.31,0,.71.13.9.35.11.13-.02.62-.2.82-.23.27-.58.51-.91.6-1.92.51-1.6,2.36-2.17,3.65-.1.23.45.68.52,1.06.07.38-.09.79-.17,1.31Zm-4.7-4.65c0,.22,0,.44-.01.66.59.43,1.13,1.12,1.78,1.24.93.17,1.54-.52,1.56-1.5.03-1-.6-1.69-1.51-1.58-.65.08-1.22.77-1.83,1.19Z"/>
      <path class="cls-1" d="m85.69,70.54c-.46.06-1.02.32-1.36.15-1.16-.58-2.21-1.36-3.37-1.95-.39-.2-1.04-.2-1.43-.01-2.33,1.15-4.72-.17-4.66-2.77.03-1.09-.73-1.23-1.26-1.73-.39-.37-.6-.94-.89-1.42.53.04,1.13-.06,1.56.16,1.55.8,3.53.39,4.79-1.05.19-.21.65-.33.93-.26.18.04.45.63.37.74-.69.98.26,1.72.28,2.52.07,2.69,2.34,3.1,3.93,4.23.4.28.77.59,1.15.89-.02.17-.03.34-.05.51Zm-6.45-3.8v-1.34c-.44-.4-.89-.83-1.39-.89-.88-.11-1.58.56-1.55,1.56.03.95.61,1.7,1.56,1.53.49-.09.93-.49,1.37-.86Z"/>
      <path class="cls-1" d="m54.16,70c.7-4.41,2.18-8.2,4.99-11.39.2-.23.7-.19,1.07-.28.02.4.21.96.02,1.19-2.52,3.05-3.94,6.56-4.59,10.43-.05.3-.49.54-.74.81-.28-.28-.56-.57-.74-.75Z"/>
      <path class="cls-1" d="m47.81,64.16c-.1.12-.33.41-.55.7-.31-.26-.83-.47-.89-.78-.74-3.68-2.8-6.36-6.02-8.23-.29-.17-.35-.72-.51-1.1.36-.08.78-.32,1.08-.22,2.97.97,6.77,6.17,6.89,9.62Z"/>
      <path class="cls-1" d="m26.07,74.82c-.77-.93-1.39-1.63-1.92-2.38-.05-.08.37-.49.58-.75.71.66,1.44,1.31,2.11,2.03.05.06-.37.55-.76,1.11Z"/>
      <path class="cls-1" d="m66.32,77.04c.27.3.66.7.64.73-.45.52-.89,1.08-1.46,1.44-.35.22-.9.15-1.36.13-.04,0-.2-.74-.07-.83.68-.52,1.44-.95,2.25-1.47Z"/>
      <path class="cls-1" d="m82.48,57.02c-.56.87-1.02,1.59-1.48,2.3-.25-.27-.77-.63-.71-.79.3-.85.73-1.65,1.12-2.46.29.26.58.52,1.07.95Z"/>
      <path class="cls-1" d="m27.14,24.49c-.97.8-1.69,1.42-2.46,1.97-.05.04-.45-.4-.69-.62.68-.7,1.34-1.41,2.05-2.06.06-.06.51.32,1.1.7Z"/>
      <path class="cls-1" d="m31.8,77.16c-.63.46-1.03.88-1.13.82-.8-.48-1.56-1.05-2.29-1.64-.03-.03.45-.8.48-.78.89.44,1.76.94,2.94,1.6Z"/>
      <path class="cls-1" d="m17.97,39.69c-.6.81-1.09,1.48-1.58,2.15-.2-.38-.64-.86-.54-1.14.26-.73.77-1.38,1.17-2.06.26.29.52.57.95,1.05Z"/>
      <path class="cls-1" d="m36.48,18.27c-.74.44-1.27.83-1.86,1.08-.38.16-.85.18-1.26.12-.12-.02-.28-.74-.22-.78.81-.45,1.65-.86,2.51-1.2.11-.04.4.36.83.77Z"/>
      <path class="cls-1" d="m74.51,26.04c-.59.37-1.03.74-1.09.68-.71-.64-1.37-1.35-2.04-2.04.24-.23.65-.69.69-.66.76.57,1.48,1.21,2.44,2.02Z"/>
      <path class="cls-1" d="m74.68,69.31c.42.5.85.91.81.98-.56.78-1.2,1.51-1.85,2.22-.02.02-.73-.53-.71-.57.5-.83,1.06-1.62,1.75-2.63Z"/>
      <path class="cls-1" d="m82.85,41.74c-.57.21-.98.52-1.3.44-1.28-.28-.89-1.53-1.17-2.37-.07-.19.39-.56.6-.85.49.73.98,1.46,1.87,2.78Z"/>
      <path class="cls-1" d="m64.34,20.1c-.88-.66-1.61-1.21-2.34-1.77.25-.26.65-.79.72-.75.82.48,1.59,1.04,2.38,1.58-.2.25-.4.5-.76.94Z"/>
      <path class="cls-1" d="m31.63,21.06c-1.16.66-2.01,1.15-2.87,1.64-.16-.29-.51-.8-.46-.84.71-.59,1.45-1.15,2.24-1.64.09-.06.48.36,1.09.83Z"/>
      <path class="cls-1" d="m16.38,56.23c.37.33.69.49.79.73.23.59.44,1.21.5,1.84.03.25-.27.66-.53.79-.17.09-.68-.12-.76-.31-.27-.67-.48-1.38-.58-2.1-.03-.24.31-.54.57-.95Z"/>
      <path class="cls-1" d="m70.31,22.06c-.55.43-.94.84-1.04.78-.79-.5-1.52-1.08-2.27-1.64.23-.28.61-.84.67-.8.81.45,1.59.98,2.64,1.66Z"/>
      <path class="cls-1" d="m71.98,74.69c-1.04.7-1.82,1.25-2.65,1.73-.05.03-.6-.69-.59-.7.71-.66,1.45-1.3,2.23-1.87.06-.05.47.38,1.02.84Z"/>
    </g>
  </g>
</svg>