<?xml version="1.0" encoding="UTF-8"?>
<svg id="Layer_2" data-name="Layer 2" xmlns="http://www.w3.org/2000/svg" viewBox="0 0 100 100">
  <defs>
    <style>
      .cls-1 {
        fill: #fff;
      }

      .cls-2 {
        fill: #00539f;
      }
    </style>
  </defs>
  <g id="Layer_1-2" data-name="Layer 1">
    <g>
      <circle class="cls-2" cx="50" cy="50" r="50"/>
      <path class="cls-1" d="m35.75,43.74c.65-.22,1.35-.54,2.08-.68,1.05-.2,1.62.24,2.02,1.45,1.05,3.21.48,6.17-1.71,8.69-2.39,2.75-5.46,4.17-9.17,3.97-2.24-.12-4.19-1.04-5.94-2.4-3.41-2.65-5.48-6.24-6.97-10.2-1.29-3.45-1.94-7.03-1.82-10.71.16-4.82,1.62-9.22,4.63-13.04,2.3-2.92,5.16-4.98,8.91-5.64,4.98-.88,10.43,1.84,12.22,6.22,1.27,3.1.97,6.2-.28,9.37-1.02-.46-2.01-.9-2.91-1.31.22-1.14.48-2.19.62-3.27.41-3.03-1.35-5.85-4.21-7.07-4.08-1.74-8.07-.36-11.02,2.9-3.28,3.62-4.7,7.98-4.63,12.81.07,4.98,1.42,9.6,4.2,13.76,1.38,2.07,3.05,3.87,5.45,4.79,2.9,1.12,5.44.31,7.69-1.61,1.83-1.56,2.49-3.58,1.86-5.93-.19-.69-.63-1.31-1.02-2.09Z"/>
      <path class="cls-1" d="m62.88,29.46c-.91.4-1.88.83-2.9,1.28-.86-1.84-1.18-3.73-1.11-5.68.19-5.3,3.83-8.86,8.97-9.81,4.74-.88,8.64.88,11.83,4.29,3.79,4.05,5.6,8.95,5.72,14.48.12,5.38-1.25,10.38-3.89,15.03-1.43,2.51-3.24,4.71-5.7,6.32-4.24,2.78-8.96,2.33-12.82-.75-3.07-2.44-4.25-5.65-3.35-9.54.04-.19.1-.37.17-.55.51-1.42,1.29-1.81,2.72-1.34.49.16.95.42,1.48.66-1.41,1.69-1.67,3.55-.95,5.48.88,2.36,2.81,3.59,5.13,4.28,2.38.71,4.48,0,6.37-1.44,2.67-2.02,4.37-4.76,5.59-7.81,1.87-4.66,2.6-9.47,1.44-14.43-.79-3.36-2.36-6.32-4.88-8.74-3.17-3.05-7.54-3.69-11.19-1.6-2.4,1.38-3.7,4.05-3.27,6.78.15.98.42,1.95.66,3.07Z"/>
      <path class="cls-1" d="m41.93,34.54c.65.56,1.44,1.17,2.16,1.86,2.22,2.12,3.33,4.8,3.68,7.79.21,1.79.27,3.61.29,5.42.04,4.9.02,9.79,0,14.69,0,.63.14.92.83.86.64-.06,1.29-.05,1.93,0,.64.05.82-.19.81-.81-.04-4.08-.06-8.16-.06-12.25,0-2.07-.05-4.14.09-6.2.24-3.52,1.21-6.8,3.77-9.41.58-.59,1.27-1.07,1.92-1.6.18-.15.36-.28.6-.46-.21-.18-.4-.3-.52-.46-.51-.64-1.08-1.26-1.49-1.96-.36-.61-.12-1.24.39-1.47.6-.28,1.03-.02,1.46.63.36.53.81,1.05,1.34,1.41.72.49,1.49.53,2.34.07,1.57-.85,3.23-1.52,4.8-2.38,1.46-.8,2.62-1.96,3.31-3.53.3-.68.87-.92,1.44-.67.55.24.75.85.45,1.53-.99,2.25-2.71,3.79-4.84,4.87-1.99,1.02-4.06,1.9-6.06,2.91-2.75,1.4-4.85,3.43-5.92,6.4-.65,1.79-.96,3.64-.97,5.53-.02,6.14,0,12.28,0,18.41,0,1.17-.32,1.5-1.47,1.51-1.6.01-3.21.01-4.81,0-1.05,0-1.34-.33-1.34-1.39,0-6.02.04-12.04-.01-18.05-.03-2.96-.53-5.83-2.2-8.38-1.24-1.89-3-3.18-4.98-4.18-1.34-.67-2.73-1.25-4.09-1.89-2.04-.95-4.02-2-5.4-3.86-.48-.64-.86-1.37-1.2-2.1-.24-.53-.08-1.05.49-1.33.54-.26,1.08-.1,1.28.41,1.21,2.96,3.88,4.12,6.49,5.37.64.31,1.3.59,1.96.87,1.3.56,2.94-.11,3.49-1.42.3-.72.76-1,1.36-.8.55.18.86.84.5,1.48-.5.89-1.16,1.69-1.79,2.59Z"/>
      <path class="cls-1" d="m68.93,36.16c.19.06.38.13.56.18,2.2.58,4.34,1.3,6.19,2.67.25.18.49.38.71.6.44.43.49.92.08,1.4-.42.5-.9.42-1.41.11-1.01-.62-2-1.29-3.07-1.8-1.93-.93-4.01-1.4-6.13-1.48-.94-.04-1.9.29-2.85.47-.13.02-.24.13-.31.18,1.33.64,2.65,1.1,3.76,1.87,1.08.74,2,1.73,2.89,2.71.58.64.47,1.43-.06,1.75-.55.34-1.08.11-1.61-.6-1.48-1.98-3.45-3.25-5.91-3.51-1.58-.17-2.99.52-3.81,2.32-.71,1.57-1,3.22-1,4.93,0,5.64,0,11.27-.03,16.91,0,.69.25.92.87,1.12,1.21.4,2.43.85,3.56,1.43,1.96,1.01,3.03,3.34,2.84,5.44-.43,4.55-3.22,7.09-7.19,8.64-1.15.45-2.37.7-3.57,1.01-.61.16-.98.44-.93,1.13.03.5.02,1,0,1.5-.03.64-.47,1.11-1.03,1.05-.58-.07-.99-.39-.98-1.03,0-.83,0-1.67.1-2.49.15-1.15.92-1.8,2.02-2.04,1.96-.42,3.89-.94,5.63-1.97,1.93-1.15,3.37-2.72,3.76-4.97.38-2.16.17-3.59-2.21-4.8-1.15-.58-2.46-.87-3.71-1.23-.98-.28-1.15-.44-1.15-1.41,0-6.26-.02-12.51.01-18.77.02-3.17,1.02-6.02,3.28-8.29.91-.91,2.03-1.69,3.18-2.26,2.09-1.03,4.26-1.9,6.43-2.74,3.01-1.17,5.58-2.87,7.49-5.51.17-.24.45-.53.71-.55.36-.03.98.07,1.06.28.16.4.2,1.08-.04,1.36-1.14,1.31-2.28,2.65-3.63,3.72-1.2.94-2.67,1.53-4.02,2.28-.12.07-.25.13-.37.2-.03.02-.04.08-.09.22Z"/>
      <path class="cls-1" d="m36.97,38.6c-.8-.69-1.73-.82-2.62-.78-3.44.15-6.67,1.01-9.49,3.1-.78.58-1.29.58-1.72,0-.37-.51-.19-1.12.48-1.64,1.96-1.53,4.24-2.33,6.61-2.94.18-.05.36-.12.54-.18,0-.06,0-.12,0-.18-.33-.15-.66-.32-1-.46-2.95-1.21-5.32-3.14-7.15-5.73-.2-.28-.34-.73-.26-1.04.2-.81,1.34-1.03,1.82-.31,2.31,3.45,5.78,5.13,9.53,6.43,2.42.84,4.76,1.85,6.78,3.46,2.58,2.05,4.03,4.78,4.11,8.01.18,6.63.13,13.27.17,19.9,0,.91-.23,1.15-1.1,1.39-1.1.3-2.22.56-3.27.98-3.05,1.22-3.51,3.71-2.32,6.39,1.05,2.37,3.02,3.76,5.39,4.6,1.16.41,2.37.69,3.57,1,1.15.3,1.94.96,2.07,2.16.1.86.06,1.75,0,2.62-.04.56-.51.85-1.01.8-.54-.05-.9-.42-.89-1.02,0-.53,0-1.05,0-1.58,0-.62-.3-.96-.91-1.08-2.11-.42-4.16-1.03-6.02-2.16-2.98-1.81-4.71-4.4-4.8-7.95-.06-2.42,1.18-4.14,3.24-5.23,1.04-.55,2.21-.88,3.34-1.24.49-.15.72-.33.72-.87-.01-5.76.03-11.51-.03-17.27-.02-1.78-.34-3.55-1.23-5.16-.73-1.33-2.2-2.13-3.69-1.93-2.42.33-4.31,1.55-5.79,3.46-.06.08-.11.15-.17.23-.42.58-1.01.72-1.53.36-.5-.35-.57-.87-.16-1.5,1.13-1.73,2.71-2.93,4.56-3.78.7-.32,1.45-.56,2.27-.87Z"/>
      <path class="cls-1" d="m39.92,73h19.81c-.09.98-.51,1.77-1.16,2.45-1.47,1.53-3.38,2.18-5.36,2.64-1.09.25-2.19.45-3.11,1.17-.1.08-.36.13-.43.06-1.14-.96-2.6-.96-3.92-1.42-1.32-.45-2.62-1.02-3.81-1.73-1.13-.67-1.84-1.75-2.01-3.17Z"/>
    </g>
  </g>
</svg>